<svg id="svg-source" height="0" version="1.1" 
  xmlns="http://www.w3.org/2000/svg" style="position:absolute; margin-left: -100%" 
  xmlns:xlink="http://www.w3.org/1999/xlink">
 
 
 <g id="garland" data-iconmelon="Merry icons:9eef616fd5a649939df1e74e64453fdf">
    <path fill-rule="evenodd" clip-rule="evenodd" d="M31.971,6.282c-0.006-0.013-0.102-0.015-0.124,0.008
	c-0.208,0.219-0.437,0.4-0.716,0.527c-1.494,0.685-3.018,1.277-4.607,1.719c-1.883,0.524-3.79,0.816-5.742,0.817
	c-1.344,0-2.686-0.01-4.029-0.125c-0.863-0.074-1.728-0.143-2.58-0.282c-1.857-0.304-3.679-0.767-5.448-1.418
	C7.491,7.076,6.28,6.567,5.155,5.876C4.213,5.296,3.292,4.691,2.53,3.871C2.331,3.656,2.062,3.503,1.814,3.339
	C1.755,3.3,1.633,3.301,1.57,3.336c-0.066,0.037-0.144,0.146-0.134,0.21c0.055,0.384,0.127,0.755,0.389,1.078
	c0.456,0.559,0.946,1.079,1.524,1.51c0.454,0.339,0.924,0.659,1.385,0.989c0.2,0.143,0.227,0.223,0.156,0.455
	C4.672,8.292,4.44,9,4.125,9.678c-0.145,0.311-0.222,0.648-0.042,0.947c0.142,0.236,0.062,0.368-0.067,0.547
	c-0.385,0.531-0.782,1.058-1.128,1.615c-0.545,0.878-0.853,1.838-0.85,2.883c0.001,0.418,0,0.837,0,1.376
	c-0.125,1.053,0.114,2.199,0.268,3.352c0.031,0.236,0.06,0.475,0.117,0.705c0.035,0.14,0.108,0.278,0.194,0.395
	c0.188,0.251,0.459,0.282,0.705,0.097c0.167-0.125,0.311-0.294,0.495-0.377c0.416-0.19,0.745-0.492,1.104-0.759
	c1.336-0.998,2.219-2.327,2.826-3.852c0.278-0.696,0.42-1.426,0.402-2.188c-0.017-0.72-0.069-1.43-0.282-2.122
	c-0.053-0.171,0.013-0.283,0.166-0.361c0.8-0.404,1.285-1.046,1.449-1.93c0.021-0.117,0.063-0.23,0.099-0.344
	c0.07-0.229,0.071-0.229,0.313-0.167c0.779,0.203,1.564,0.384,2.334,0.617c0.367,0.111,0.78,0.051,1.106,0.302
	c0.011,0.386,0.032,0.773,0.029,1.159c-0.001,0.208-0.037,0.416-0.068,0.622c-0.049,0.324-0.095,0.65-0.166,0.971
	c-0.041,0.186-0.046,0.366,0.061,0.516c0.15,0.208,0.098,0.376-0.03,0.563c-0.585,0.855-0.841,1.832-1.065,2.828
	c-0.2,0.888-0.157,1.782-0.167,2.677c-0.009,0.836,0.242,1.6,0.729,2.263c0.369,0.504,0.789,0.979,1.243,1.406
	c0.274,0.258,0.65,0.414,0.996,0.586c0.226,0.112,0.467,0.074,0.68-0.073c0.52-0.359,1.006-0.764,1.353-1.295
	c0.342-0.523,0.642-1.076,0.95-1.622c0.558-0.989,0.781-2.05,0.729-3.186c-0.031-0.667-0.131-1.307-0.417-1.91
	c-0.255-0.539-0.53-1.069-0.796-1.604c0.167-0.614,0.092-1.243,0.106-1.866c0.004-0.179,0.005-0.359-0.01-0.538
	c-0.015-0.177-0.023-0.364-0.086-0.526c-0.21-0.54-0.01-0.583,0.408-0.561c0.537,0.027,1.073,0.053,1.61,0.075
	c0.208,0.008,0.418,0.018,0.627,0.009c0.806-0.035,1.611-0.087,2.417-0.109c0.287-0.008,0.648-0.167,0.847,0.083
	c0.146,0.182,0.125,0.503,0.169,0.763c0.091,0.529,0.185,1.058,0.259,1.589c0.024,0.173,0.019,0.36-0.019,0.53
	c-0.339,1.5-0.434,3.031-0.29,4.543c0.18,1.889,0.896,3.531,2.779,4.386c0.08,0.037,0.146,0.102,0.217,0.157
	c0.167,0.13,0.331,0.083,0.503,0.007c0.384-0.17,0.583-0.504,0.764-0.849c0.749-1.424,1.187-2.918,1.115-4.554
	c-0.045-1.004-0.229-1.952-0.714-2.835c-0.116-0.209-0.225-0.422-0.342-0.63c-0.075-0.131-0.12-0.252-0.086-0.418
	c0.202-1.004,0.032-1.958-0.423-2.868c-0.092-0.186-0.177-0.379-0.236-0.578c-0.02-0.064,0.029-0.189,0.087-0.228
	c0.121-0.083,0.264-0.137,0.404-0.184c0.881-0.297,1.714-0.701,2.524-1.15c0.884-0.49,1.601-1.146,1.969-2.118
	C32.011,6.402,31.991,6.333,31.971,6.282z M7.005,11.95c-0.186,0.644-0.108,1.305-0.1,1.956c0.022,1.837-0.702,3.353-1.909,4.679
	c-0.121,0.132-0.244,0.265-0.382,0.376c-0.251,0.201-0.422,0.508-0.767,0.587c-0.389-0.22-0.341-0.662-0.502-0.998
	c-0.037-0.077-0.037-0.174-0.042-0.263c-0.044-0.684-0.085-1.367-0.111-1.787c-0.017-1.991,0.438-3.561,1.545-4.913
	c0.038-0.046,0.081-0.088,0.115-0.137c0.292-0.423,0.294-0.432,0.665-0.295c0.447,0.165,0.888,0.344,1.331,0.519
	C6.97,11.723,7.044,11.816,7.005,11.95z M8.206,9.347c-0.03,0.119-0.072,0.385-0.162,0.633c-0.223,0.611-0.288,0.63-0.886,0.412
	c-0.361-0.132-0.73-0.241-1.09-0.377c-0.064-0.025-0.098-0.131-0.146-0.2c0.054-0.023,0.106-0.05,0.162-0.068
	C6.244,9.693,6.34,9.607,6.292,9.42c-0.013-0.051-0.018-0.125,0.01-0.162c0.081-0.112,0.259-0.181,0.173-0.36
	C6.391,8.719,6.223,8.66,6.037,8.642c-0.028-0.002-0.06-0.007-0.084-0.02C5.927,8.609,5.908,8.584,5.886,8.564
	C5.92,8.532,5.95,8.483,5.99,8.472c0.084-0.023,0.187,0,0.258-0.04C6.686,8.193,6.683,8.19,6.94,8.311
	c0.348,0.165,0.698,0.325,1.045,0.491C8.22,8.914,8.256,8.981,8.206,9.347z M15.379,11.844c-0.114-0.175-0.175-0.271,0.037-0.415
	c0.12-0.081,0.063-0.296-0.056-0.374c-0.261-0.17-0.541-0.222-0.85-0.181c-0.047,0.006-0.109-0.107-0.165-0.166
	c0.065-0.045,0.129-0.093,0.198-0.132c0.022-0.013,0.059-0.006,0.087-0.003c0.444,0.047,0.888,0.095,1.332,0.143
	c0.177,0.019,0.355,0.035,0.532,0.062c0.123,0.019,0.238,0.069,0.17,0.224c-0.287,0.652-0.227,1.342-0.238,2.025
	c-0.007,0.393-0.067,0.443-0.481,0.452c-0.089,0.001-0.179,0-0.268,0c-0.448-0.004-0.894-0.022-1.308-0.218
	c-0.04-0.019-0.076-0.096-0.071-0.142c0.004-0.045,0.059-0.12,0.095-0.122c0.34-0.021,0.628-0.149,0.879-0.377
	C15.544,12.374,15.593,12.174,15.379,11.844z M16.979,19.737c-0.231,0.619-0.534,1.199-0.917,1.737
	c-0.121,0.17-0.248,0.341-0.337,0.528c-0.286,0.598-0.36,0.563-0.941,0.214c-1.063-0.638-1.586-1.574-1.615-2.811
	c-0.031-1.322,0.034-2.627,0.552-3.869c0.115-0.275,0.238-0.547,0.365-0.816c0.038-0.08,0.096-0.151,0.151-0.221
	c0.101-0.128,0.322-0.145,0.487-0.039c0.128,0.082,0.107,0.2,0.065,0.314c-0.295,0.798-0.349,1.628-0.335,2.468
	c0,0.03-0.001,0.06,0.001,0.089c0.021,0.457,0.2,0.672,0.547,0.66c0.313-0.012,0.479-0.212,0.499-0.617
	c0.007-0.149,0.002-0.299,0.002-0.449c0-0.269,0-0.538,0-0.806h0.026c0-0.448-0.005-0.896,0.003-1.344
	c0.002-0.135,0.106-0.203,0.238-0.209c0.281-0.012,0.529,0.021,0.648,0.343c0.271,0.726,0.579,1.435,0.76,2.195
	C17.395,18.013,17.299,18.878,16.979,19.737z M24.373,10.949c-0.062-0.086-0.063-0.291,0.026-0.316
	c0.368-0.103,0.737-0.202,1.11-0.282c0.061-0.013,0.173,0.063,0.212,0.128c0.353,0.59,0.603,1.223,0.743,1.896
	c0.023,0.113,0.015,0.236,0.005,0.354c-0.016,0.21-0.187,0.37-0.412,0.393c-0.059,0.006-0.119,0.001-0.069,0.001
	c-0.329,0.016-0.508-0.015-0.595-0.271c-0.062-0.185-0.268-0.208-0.438-0.266c-0.123-0.042-0.151-0.19-0.075-0.287
	c0.036-0.046,0.086-0.08,0.125-0.124c0.248-0.283,0.248-0.342-0.103-0.491c-0.21-0.09-0.082-0.118-0.008-0.207
	c0.144-0.174,0.122-0.28-0.046-0.335C24.688,11.088,24.495,11.119,24.373,10.949z M25.801,15.555
	c0.007-0.036,0.014-0.095,0.029-0.151c0.004-0.013,0.039-0.026,0.056-0.022c0.027,0.006,0.066,0.021,0.073,0.042
	c0.048,0.136,0.098,0.272,0.126,0.413c0.009,0.044-0.048,0.101-0.076,0.152c-0.066-0.048-0.136-0.092-0.198-0.146
	c-0.016-0.014-0.008-0.057-0.01-0.087C25.8,15.696,25.801,15.637,25.801,15.555z M27.676,17.313c0.105,1.438-0.286,2.77-0.919,4.043
	c-0.107,0.216-0.214,0.219-0.415,0.029c-1.072-1.008-1.663-2.233-1.666-3.72c-0.001-0.865-0.004-1.729,0.017-2.594
	c0.005-0.23,0.084-0.463,0.157-0.686c0.017-0.054,0.151-0.113,0.213-0.097c0.062,0.016,0.159,0.145,0.143,0.186
	c-0.243,0.625-0.115,1.306-0.304,1.937c-0.033,0.112-0.032,0.237-0.026,0.355c0.014,0.284,0.12,0.52,0.387,0.657
	c0.393,0.201,0.809,0.349,1.157,0.646c0.202,0.172,0.681-0.054,0.818-0.353c0.167-0.364,0.199-0.748,0.079-1.132
	c-0.207-0.661-0.427-1.319-0.642-1.978c-0.014-0.01-0.028-0.02-0.042-0.03c-0.004-0.01-0.004-0.025-0.003-0.041
	c-0.031-0.02-0.062-0.041-0.093-0.061c0.111-0.055,0.097,0.008,0.093,0.061c0.009,0.006,0.019,0.012,0.027,0.018
	c0.006,0.018,0.012,0.035,0.018,0.053c0.079,0.055,0.166,0.104,0.215,0.178C27.395,15.551,27.609,16.413,27.676,17.313z
	 M25.736,24.616c-0.173-0.019-0.32,0.074-0.408,0.276c-0.177,0.411-0.29,0.835-0.293,1.289c-0.004,0.563-0.03,1.126-0.04,1.689
	c-0.002,0.146,0.008,0.296,0.033,0.44c0.035,0.199,0.197,0.285,0.365,0.352c0.192,0.075,0.346-0.011,0.481-0.136
	c0.165-0.153,0.206-0.351,0.205-0.566c-0.004-0.445-0.001-0.89-0.001-1.334c-0.004,0-0.008-0.001-0.012-0.001
	c0.019-0.384,0.037-0.77,0.054-1.154c0.007-0.147,0.021-0.295,0.012-0.442C26.118,24.811,25.945,24.64,25.736,24.616z M2.199,23.248
	c-0.191-0.084-0.355,0.007-0.495,0.115c-0.556,0.429-0.752,1.052-0.857,1.704c-0.045,0.279,0.213,0.603,0.468,0.69
	c0.211,0.074,0.521-0.049,0.671-0.317c0.202-0.363,0.376-0.741,0.543-1.122c0.058-0.131,0.054-0.29,0.063-0.342
	c0-0.125,0.001-0.155,0-0.185C2.578,23.526,2.436,23.351,2.199,23.248z M29.582,23.07c-0.181-0.259-0.554-0.243-0.768,0.003
	c-0.075,0.087-0.146,0.188-0.186,0.295c-0.225,0.595,0.132,1.43,0.729,1.72c0.372,0.182,0.879-0.158,0.874-0.585
	c-0.001-0.029,0.002-0.061-0.006-0.088C30.093,23.927,29.867,23.481,29.582,23.07z M23.837,22.799
	c-0.354-0.01-0.639,0.132-0.806,0.445c-0.209,0.395-0.341,0.816-0.341,1.271c0,0.059-0.003,0.118,0,0.177
	c0.014,0.246,0.061,0.511,0.317,0.583c0.263,0.074,0.457-0.148,0.565-0.347c0.267-0.49,0.509-0.995,0.724-1.51
	C24.414,23.137,24.146,22.808,23.837,22.799z M12.029,23.2c-0.281-0.034-0.521,0.081-0.652,0.352
	c-0.206,0.427-0.346,0.875-0.381,1.406c0.01,0.094,0.019,0.242,0.045,0.386c0.032,0.171,0.196,0.311,0.371,0.333
	c0.175,0.022,0.361-0.068,0.44-0.231c0.063-0.132,0.12-0.27,0.157-0.412c0.112-0.427,0.209-0.854,0.403-1.258
	C12.529,23.531,12.31,23.234,12.029,23.2z M5.048,22.107c-0.208,0.014-0.307,0.165-0.372,0.332
	c-0.052,0.135-0.086,0.282-0.098,0.427c-0.016,0.205-0.004,0.413-0.004,0.62c-0.004,0-0.008,0-0.012,0
	c0.011,0.235,0.008,0.473,0.036,0.706c0.028,0.242,0.244,0.412,0.494,0.421c0.289,0.011,0.533-0.179,0.542-0.465
	c0.018-0.561,0.017-1.122-0.154-1.667C5.407,22.244,5.235,22.095,5.048,22.107z M12.995,25.701
	c-0.095-0.007-0.257,0.062-0.289,0.139c-0.232,0.576-0.475,1.153-0.478,1.8c0.034,0.231,0.047,0.469,0.11,0.691
	c0.042,0.149,0.197,0.232,0.353,0.21c0.105-0.015,0.233-0.075,0.293-0.156c0.083-0.114,0.142-0.264,0.162-0.405
	c0.077-0.556,0.143-1.114,0.195-1.673c0.014-0.14-0.008-0.302-0.07-0.426C13.229,25.792,13.094,25.708,12.995,25.701z
	 M30.399,19.266c-0.299-0.071-0.586,0.196-0.55,0.514c0.044,0.384,0.254,0.645,0.598,0.809c0.333,0.159,0.674-0.059,0.671-0.43
	C31.114,19.756,30.796,19.36,30.399,19.266z M6.961,20.238c-0.098-0.053-0.208-0.113-0.313-0.111
	c-0.064,0.001-0.164,0.099-0.183,0.171c-0.055,0.197-0.075,0.403-0.091,0.5c0.014,0.259,0.004,0.41,0.034,0.554
	c0.03,0.142,0.089,0.282,0.158,0.411c0.059,0.109,0.173,0.17,0.299,0.136c0.078-0.021,0.176-0.072,0.21-0.137
	c0.065-0.128,0.137-0.28,0.127-0.416c-0.023-0.323-0.09-0.643-0.148-0.963C7.045,20.33,7.006,20.262,6.961,20.238z M1.354,20.387
	c0.031-0.168-0.194-0.327-0.363-0.263c-0.535,0.204-0.847,0.615-0.989,1.147c-0.023,0.088,0.129,0.224,0.182,0.306
	c0.121,0,0.189,0.021,0.235-0.003C0.914,21.325,1.254,20.945,1.354,20.387z M17.416,24.129c-0.11-0.064-0.295-0.077-0.411-0.029
	c-0.109,0.046-0.172,0.204-0.215,0.259c-0.026,0.454,0.09,0.775,0.355,1.041c0.126,0.126,0.372,0.117,0.472-0.017
	C17.883,25.029,17.786,24.345,17.416,24.129z M15.695,26.759c-0.024-0.062-0.137-0.125-0.211-0.125
	c-0.074-0.001-0.189,0.054-0.22,0.117c-0.157,0.322-0.286,0.659-0.203,1.026c0.033,0.141,0.109,0.274,0.179,0.404
	c0.061,0.113,0.297,0.109,0.392,0.012c0.207-0.213,0.225-0.476,0.206-0.957C15.83,27.205,15.779,26.976,15.695,26.759z
	 M16.475,16.441c-0.132-0.519-0.276-1.036-0.418-1.553c-0.007-0.025-0.051-0.064-0.059-0.061c-0.039,0.021-0.095,0.048-0.104,0.083
	c-0.057,0.23-0.113,0.462-0.149,0.697c-0.022,0.145-0.027,0.298-0.006,0.443c0.053,0.382,0.125,0.762,0.188,1.143
	c0.037,0.223,0.146,0.365,0.303,0.396c0.173,0.034,0.322-0.166,0.329-0.441c0-0.03,0-0.06,0-0.22
	C16.547,16.851,16.525,16.642,16.475,16.441z M6.081,12.209c-0.141-0.016-0.285,0.002-0.428,0.008
	c0.001,0.005,0.001,0.011,0.002,0.016c-0.005,0.004-0.012,0.008-0.018,0.012c-0.001,0.049,0,0.099-0.013,0.144
	c-0.011,0.038-0.051,0.067-0.077,0.1c-0.007-0.052-0.033-0.112-0.015-0.154c0.017-0.038,0.064-0.062,0.104-0.089
	c0-0.009,0-0.019,0.001-0.027c0.005,0,0.01-0.001,0.015-0.001c-0.023-0.141-0.033-0.286-0.077-0.419
	c-0.062-0.191-0.292-0.253-0.432-0.119c-0.104,0.101-0.215,0.213-0.273,0.342c-0.265,0.599-0.494,1.213-0.627,1.857
	c-0.029,0.144-0.024,0.296-0.018,0.444c0.007,0.171,0.157,0.33,0.333,0.377c0.159,0.043,0.373-0.038,0.456-0.204
	c0.064-0.13,0.086-0.28,0.134-0.419c0.013-0.038,0.051-0.066,0.077-0.098c0.011,0.027,0.029,0.054,0.032,0.082
	c0.01,0.089,0.015,0.179,0.022,0.268c0.017,0.208,0.024,0.417,0.054,0.622c0.023,0.154,0.252,0.318,0.401,0.301
	c0.162-0.018,0.273-0.118,0.333-0.264c0.044-0.108,0.08-0.225,0.092-0.341c0.019-0.178,0.005-0.358,0.021-0.537
	c0.05-0.561-0.048-1.13,0.126-1.685C6.351,12.288,6.195,12.222,6.081,12.209z"></path>
  </g>
  <g id="shipping" data-iconmelon="e-commerce icons:7a09c8822d3657a6083e1b7e5626a3bc">
    <path d="M0.526,21.124c-0.135,0.41-0.021,0.695,0.39,0.832l12.01,3.904c0.048,0.016,0.097,0.025,0.146,0.033
	c0-0.543,0.092-0.657,0.259-1.143L1.408,20.875C0.998,20.739,0.662,20.714,0.526,21.124z M11.102,11.258l-6.099,2.004l3.604,5.313
	l0.64-1.876l3.754,1.281l1.217-3.565l-3.755-1.28L11.102,11.258z M12.76,15.132l-0.475,1.392l-3.755-1.282l-0.268,0.783
	l-1.456-2.147l2.465-0.81l-0.268,0.783L12.76,15.132z M31.978,8.132c-0.073-0.426-0.385-0.479-0.811-0.405l-8.361,1.397
	l-0.243,0.791h0l-3.872,11.701c0.491,0.089,0.713,0.159,1.14,0.387l3.875-11.706l7.825-1.464C31.956,8.76,32.051,8.559,31.978,8.132
	z M17.833,22.798c-1.934,0-3.501,1.566-3.501,3.501c0,1.934,1.567,3.501,3.501,3.501s3.501-1.567,3.501-3.501
	C21.334,24.364,19.767,22.798,17.833,22.798z M17.833,28.786c-1.374,0-2.487-1.113-2.487-2.487c0-1.373,1.113-2.487,2.487-2.487
	c1.374,0,2.487,1.114,2.487,2.487C20.319,27.673,19.206,28.786,17.833,28.786z M16.594,21.693l0.303-0.077l4.701-14.007L14.08,5.098
	l-1.447,4.317l-1.457-0.5l1.409-4.316L5.408,2.2L0,18.424l14.289,4.784l0.252-0.276C15.094,22.324,15.804,21.896,16.594,21.693z
	 M13.958,21.887L1.452,17.699L6.134,3.653l5.005,1.673l-1.405,4.31l3.622,1.24l1.448-4.326l5.34,1.784l-4.14,12.335
	C15.238,20.915,14.541,21.33,13.958,21.887z M17.832,25.505c-0.437,0-0.791,0.354-0.791,0.79s0.354,0.791,0.791,0.791
	s0.791-0.354,0.791-0.791S18.269,25.505,17.832,25.505z"></path>
  </g>
  <g id="arheology" data-iconmelon="Brainy Icons:099be015508428f7cb00dd637637a988">
    <path fill-rule="evenodd" clip-rule="evenodd" d="M31.785,25.244c0.016-0.355-0.048-0.69-0.16-1.03
	c-0.188-0.569-0.492-1.066-0.84-1.547c-0.395-0.542-0.881-0.942-1.556-1.068c-0.156-0.029-0.146-0.109-0.137-0.239
	c0.02-0.291,0.042-0.591-0.001-0.877c-0.068-0.459-0.311-0.595-0.775-0.542c-0.249,0.028-0.503,0.018-0.754,0.007
	c-0.104-0.004-0.178-0.055-0.109-0.194c0.146-0.305,0.291-0.604,0.541-0.847c0.16-0.154,0.312-0.327,0.426-0.518
	c0.284-0.479,0.096-0.897-0.448-1.011c-0.245-0.051-0.49-0.112-0.749-0.04c-0.151,0.041-0.223-0.04-0.168-0.185
	c0.1-0.26,0.215-0.516,0.346-0.763c0.084-0.159,0.218-0.293,0.307-0.451c0.19-0.335,0.013-0.7-0.372-0.752
	c-0.148-0.019-0.308,0.007-0.458,0.037c-0.246,0.049-0.489,0.123-0.735,0.18c-0.138,0.031-0.166-0.009-0.119-0.156
	c0.029-0.093,0.062-0.186,0.103-0.275c0.214-0.473,0.41-0.955,0.649-1.414c0.231-0.441-0.174-0.863-0.523-0.812
	c-0.4,0.06-0.802,0.137-1.188,0.256c-0.266,0.081-0.305,0.4-0.084,0.573c0.114,0.088,0.273,0.138,0.419,0.16
	c0.265,0.043,0.269,0.03,0.171,0.27c-0.068,0.169-0.14,0.338-0.219,0.501c-0.058,0.117-0.123,0.09-0.172-0.012
	c-0.164-0.341-0.31-0.691-0.494-1.021c-0.096-0.17-0.1-0.263,0.064-0.38c0.084-0.061,0.137-0.177,0.18-0.278
	c0.127-0.297,0.271-0.592,0.351-0.901c0.064-0.252,0.067-0.525,0.058-0.788c-0.006-0.174-0.126-0.321-0.289-0.389
	c-0.547-0.227-1.117-0.237-1.692-0.148c-0.026,0.004-0.046,0.033-0.071,0.043c-0.031,0.014-0.066,0.021-0.1,0.029
	c-0.004-0.04-0.022-0.085-0.011-0.119c0.1-0.292,0.212-0.58,0.307-0.873c0.052-0.158,0.101-0.324,0.108-0.488
	c0.014-0.277-0.178-0.488-0.455-0.501c-0.135-0.007-0.281,0.019-0.406,0.071c-0.385,0.161-0.718,0.43-1.15,0.502
	c-0.225,0.036-0.267,0.281-0.118,0.47c0.142,0.182,0.337,0.242,0.562,0.228c0.118-0.008,0.237-0.013,0.355-0.019
	c-0.031,0.121-0.064,0.243-0.097,0.365c-0.004,0.013-0.011,0.026-0.013,0.039c-0.023,0.136-0.061,0.213-0.208,0.095
	c-0.22-0.176-0.452-0.334-0.673-0.506c-0.223-0.174-0.216-0.176-0.104-0.438c0.031-0.073,0.036-0.161,0.044-0.242
	c0.018-0.195,0.041-0.392,0.041-0.587c0.001-0.28,0.017-0.566-0.035-0.838c-0.082-0.445-0.406-0.577-0.771-0.321
	c-0.286,0.2-0.547,0.439-0.816,0.663c-0.043,0.036-0.076,0.082-0.109,0.127c-0.089,0.12-0.143,0.253-0.062,0.392
	c0.077,0.131,0.21,0.194,0.359,0.174c0.136-0.019,0.272-0.058,0.4-0.106c0.104-0.04,0.122,0.009,0.125,0.087
	c0.004,0.084-0.003,0.169,0.002,0.253c0.007,0.136-0.038,0.166-0.171,0.117c-0.354-0.128-0.676-0.336-1.061-0.396
	c-0.297-0.047-0.289-0.074-0.299-0.397c-0.009-0.295-0.002-0.593-0.05-0.881c-0.054-0.326-0.275-0.482-0.604-0.448
	c-0.161,0.017-0.335,0.068-0.471,0.154c-0.212,0.135-0.397,0.311-0.589,0.474c-0.073,0.063-0.13,0.146-0.204,0.209
	c-0.036,0.03-0.095,0.035-0.144,0.051c-0.009-0.04-0.023-0.08-0.025-0.121c-0.009-0.287,0.076-0.553,0.192-0.812
	c0.046-0.102,0.104-0.202,0.13-0.31c0.095-0.412-0.17-0.666-0.575-0.554c-0.106,0.029-0.208,0.085-0.31,0.132
	c-0.256,0.116-0.51,0.235-0.766,0.351c-0.048,0.021-0.102,0.03-0.152,0.045c0.018-0.061,0.023-0.129,0.054-0.182
	c0.177-0.303,0.371-0.597,0.535-0.906c0.097-0.183,0.184-0.384,0.21-0.585c0.057-0.427-0.199-0.662-0.631-0.608
	c-0.151,0.02-0.302,0.063-0.448,0.11c-0.187,0.061-0.371,0.129-0.551,0.206c-0.126,0.054-0.154-0.002-0.133-0.104
	c0.037-0.179,0.086-0.354,0.132-0.529c0.176-0.666,0.34-1.333,0.297-2.031c-0.029-0.464-0.257-0.666-0.714-0.588
	c-0.331,0.057-0.655,0.145-0.982,0.224c-0.169,0.04-0.192,0.024-0.171-0.15c0.027-0.235,0.079-0.471,0.084-0.707
	c0.008-0.448-0.213-0.65-0.66-0.585c-0.246,0.037-0.49,0.121-0.719,0.222c-0.479,0.209-0.903,0.511-1.311,0.838
	c-0.142,0.113-0.174,0.104-0.221-0.071c-0.076-0.284-0.143-0.57-0.204-0.858C9.887,0.199,9.786,0.06,9.588,0.013
	C9.404-0.03,9.247,0.041,9.138,0.181C8.931,0.445,8.73,0.717,8.543,0.996C8.37,1.251,8.22,1.522,8.055,1.783
	c-0.117,0.185-0.138,0.182-0.295,0C7.648,1.655,7.544,1.521,7.421,1.407C7.189,1.19,6.951,1.182,6.705,1.384
	C6.599,1.471,6.503,1.58,6.43,1.696c-0.194,0.31-0.364,0.633-0.561,0.94c-0.12,0.188-0.254,0.37-0.41,0.526
	C5.201,3.422,4.928,3.664,4.647,3.897C4.534,3.992,4.393,4.069,4.252,4.111C3.971,4.194,3.674,4.227,3.395,4.315
	C2.807,4.502,2.224,4.708,1.707,5.062C1.535,5.182,1.355,5.292,1.172,5.395C0.932,5.527,0.74,5.709,0.617,5.952
	C0.504,6.177,0.404,6.409,0.315,6.645c-0.049,0.129-0.081,0.27-0.093,0.406c-0.029,0.353-0.002,0.691,0.141,1.03
	c0.17,0.399,0.275,0.824,0.422,1.233c0.076,0.213,0.209,0.25,0.389,0.121c0.065-0.047,0.117-0.117,0.162-0.187
	c0.036-0.058,0.05-0.13,0.077-0.194c0.048-0.113,0.099-0.226,0.147-0.338c0.077,0.108,0.157,0.215,0.231,0.325
	c0.102,0.151,0.192,0.311,0.3,0.457c0.11,0.153,0.257,0.278,0.459,0.241c0.21-0.039,0.345-0.181,0.386-0.397
	C2.965,9.191,2.989,9.04,3.014,8.889c0.014-0.08,0.05-0.089,0.108-0.04c0.226,0.188,0.437,0.399,0.682,0.56
	C4.143,9.632,4.549,9.47,4.682,9.083c0.045-0.132,0.067-0.271,0.098-0.408C4.84,8.401,4.89,8.124,4.961,7.854
	C5.036,7.563,5.104,7.518,5.4,7.507c0.168-0.006,0.337-0.015,0.506-0.006c0.518,0.026,0.952,0.221,1.246,0.665
	c0.283,0.43,0.446,0.904,0.476,1.42c0.016,0.277-0.085,0.36-0.345,0.282C7.206,9.846,7.139,9.787,7.074,9.736
	c-0.067-0.051-0.121-0.12-0.189-0.167C6.43,9.262,5.924,9.503,5.874,10.049c-0.016,0.168-0.028,0.335-0.052,0.501
	c-0.016,0.1-0.062,0.145-0.17,0.073c-0.236-0.158-0.488-0.273-0.787-0.249C4.575,10.397,4.33,10.6,4.272,10.88
	c-0.028,0.132-0.01,0.331-0.088,0.381c-0.093,0.058-0.267-0.011-0.405-0.027c-0.139-0.016-0.279-0.028-0.417-0.052
	c-0.391-0.066-0.599,0.043-0.696,0.416c-0.112,0.421-0.182,0.854-0.067,1.286c0.063,0.243,0.167,0.476,0.259,0.71
	c0.123,0.311,0.352,0.521,0.676,0.575c0.607,0.1,1.218,0.203,1.831,0.238c0.444,0.025,0.896-0.042,1.341-0.095
	c0.277-0.032,0.557-0.088,0.818-0.178c0.451-0.154,0.896-0.331,1.332-0.522c0.359-0.157,0.695-0.368,1.056-0.521
	c0.794-0.339,1.502-0.818,2.2-1.314c0.246-0.175,0.246-0.19,0.49,0.021c0.191,0.164,0.377,0.337,0.546,0.523
	c0.244,0.271,0.472,0.557,0.705,0.838c0.21,0.255,0.206,0.284-0.08,0.467c-0.07,0.045-0.147,0.092-0.228,0.107
	c-0.491,0.096-0.911,0.356-1.356,0.563c-0.764,0.355-1.204,0.984-1.493,1.743c-0.074,0.196-0.129,0.4-0.204,0.597
	c-0.157,0.412-0.228,0.836-0.232,1.275c-0.003,0.209-0.04,0.417-0.062,0.624c-0.034,0.308-0.089,0.612-0.102,0.92
	c-0.014,0.309,0.165,0.514,0.419,0.536c0.243,0.021,0.444-0.118,0.503-0.407c0.077-0.385,0.305-0.69,0.477-1.026
	c0.017-0.031,0.063-0.075,0.087-0.07c0.032,0.008,0.07,0.051,0.08,0.087c0.096,0.336,0.176,0.678,0.285,1.011
	c0.051,0.156,0.141,0.306,0.238,0.438c0.112,0.151,0.287,0.176,0.459,0.117c0.161-0.057,0.235-0.188,0.244-0.359
	c0.016-0.28,0.043-0.56,0.049-0.84c0.012-0.464,0.008-0.928,0.015-1.392c0.007-0.45,0.211-0.777,0.629-0.958
	c0.386-0.166,0.771-0.336,1.164-0.487c0.506-0.197,0.415-0.213,0.571,0.296c0.265,0.86,0.455,1.734,0.451,2.644
	c-0.001,0.151-0.008,0.208-0.158,0.273c-0.665,0.285-1.023,0.852-1.121,1.521c-0.098,0.676-0.056,1.372-0.071,2.06
	c-0.002,0.084,0.017,0.168,0.028,0.25c0.051,0.348,0.094,0.695,0.157,1.04c0.023,0.127-0.023,0.188-0.12,0.23
	c-0.076,0.032-0.165,0.085-0.236,0.071c-0.211-0.042-0.394,0.029-0.566,0.117c-0.751,0.379-1.5,0.764-2.242,1.159
	c-0.231,0.123-0.279,0.267-0.227,0.487c0.057,0.239,0.188,0.39,0.428,0.393c0.448,0.004,0.896-0.017,1.344-0.047
	c0.272-0.019,0.542-0.074,0.813-0.112c0.001-0.004,0.003-0.008,0.004-0.011c0.007-0.002,0.013-0.004,0.02-0.006
	c0.008-0.01,0.016-0.02,0.024-0.029c-0.003,0.009-0.003,0.021-0.009,0.024c-0.005,0.003-0.011,0.003-0.016,0.005
	c-0.004,0.005-0.008,0.01-0.012,0.015c-0.004,0-0.008,0.001-0.012,0.002c-0.03,0.07-0.052,0.148-0.098,0.207
	c-0.163,0.211-0.349,0.405-0.503,0.622c-0.179,0.25-0.363,0.504-0.491,0.781c-0.188,0.407,0.107,0.783,0.552,0.723
	c0.164-0.022,0.334-0.074,0.477-0.156c0.671-0.384,1.33-0.785,1.854-1.372c0.771-0.861,1.665-1.585,2.596-2.265
	c0.295-0.215,0.592-0.424,0.941-0.551c0.142-0.051,0.28-0.136,0.394-0.236c0.107-0.094,0.168-0.14,0.234,0.026
	c0.032,0.077,0.083,0.146,0.131,0.216c0.088,0.128,0.076,0.232-0.06,0.319c-0.106,0.067-0.208,0.145-0.315,0.211
	c-0.703,0.426-1.31,0.966-1.863,1.567c-0.104,0.113-0.219,0.227-0.287,0.361c-0.059,0.118-0.079,0.264-0.08,0.398
	c-0.001,0.053,0.095,0.153,0.146,0.153c0.224,0.003,0.452,0,0.669-0.045c0.341-0.071,0.674-0.181,1.011-0.271
	c0.037-0.009,0.08,0.003,0.119,0.004c-0.002,0.037,0.004,0.077-0.01,0.109c-0.096,0.232-0.191,0.467-0.297,0.695
	c-0.106,0.229-0.228,0.452-0.338,0.68c-0.067,0.143-0.118,0.302,0.002,0.434c0.118,0.132,0.283,0.111,0.43,0.044
	c0.178-0.082,0.364-0.16,0.519-0.276c0.348-0.262,0.676-0.547,1.015-0.819c0.263-0.21,0.531-0.414,0.797-0.62
	c0.121-0.095,0.248-0.183,0.361-0.286c0.598-0.552,1.166-1.14,1.902-1.521c0.049-0.025,0.09-0.066,0.135-0.101
	c0.269-0.209,0.373-0.479,0.312-0.816c-0.044-0.234-0.087-0.469-0.117-0.705c-0.026-0.207,0.03-0.253,0.239-0.195
	c0.323,0.09,0.643,0.201,0.969,0.282c0.312,0.077,0.581,0.228,0.785,0.464c0.393,0.453,0.67,0.975,0.766,1.569
	c0.044,0.275,0.002,0.562,0.024,0.843c0.038,0.491-0.169,0.887-0.503,1.202c-0.543,0.513-1.137,0.955-1.86,1.201
	c-0.518,0.175-1.029,0.374-1.528,0.596c-0.396,0.175-0.775,0.389-1.15,0.607c-0.11,0.065-0.217,0.194-0.256,0.316
	c-0.123,0.397,0.219,0.915,0.638,0.962c0.515,0.059,1.033,0.097,1.55,0.128c0.307,0.018,0.621,0.049,0.919-0.001
	c0.663-0.11,1.32-0.257,1.975-0.408c0.312-0.072,0.618-0.18,0.92-0.291c0.289-0.107,0.576-0.225,0.851-0.366
	c0.411-0.211,0.839-0.408,1.206-0.683c0.47-0.352,0.882-0.773,1.261-1.233c0.7-0.851,1.069-1.8,1.036-2.904
	C31.762,25.807,31.773,25.525,31.785,25.244z M27.676,20.66c0.124,0.016,0.252,0.007,0.378,0.011
	c0.315,0.011,0.315,0.011,0.322,0.343c0.001,0.028,0.001,0.056,0.001,0.084l0,0c0,0.042-0.002,0.085,0.001,0.127
	c0.013,0.139-0.043,0.167-0.17,0.122c-0.264-0.093-0.532-0.173-0.796-0.266c-0.359-0.125-0.482-0.443-0.605-0.759
	c-0.006-0.016,0.016-0.056,0.035-0.065s0.057-0.006,0.075,0.009c0.045,0.032,0.086,0.07,0.122,0.113
	C27.206,20.575,27.437,20.632,27.676,20.66z M25.68,15.906c0.002,0.004,0.002,0.009,0.003,0.014c0.005,0.005,0.009,0.01,0.015,0.016
	c-0.001,0.003-0.002,0.007-0.002,0.011c0.225,0.052,0.41,0.218,0.663,0.193c0.116-0.011,0.097,0.102,0.069,0.188
	c-0.119,0.373-0.244,0.745-0.35,1.123c-0.062,0.224,0.008,0.419,0.187,0.503c0.104,0.049,0.277,0.092,0.351,0.039
	c0.311-0.223,0.559,0.048,0.834,0.073c0.014,0.001,0.039,0.072,0.026,0.089c-0.055,0.081-0.12,0.155-0.184,0.229
	c-0.257,0.298-0.514,0.595-0.771,0.892c-0.11,0.128-0.171,0.122-0.223-0.048c-0.118-0.389-0.281-0.776-0.316-1.174
	c-0.06-0.673-0.131-1.339-0.292-1.994c-0.008-0.036,0.002-0.075,0.006-0.114c-0.003-0.001-0.005-0.002-0.008-0.002
	c-0.002-0.008-0.004-0.017-0.005-0.024c-0.009-0.009-0.018-0.019-0.026-0.027C25.664,15.896,25.676,15.899,25.68,15.906z
	 M23.095,10.852c0.003-0.002,0.059,0.031,0.064,0.055c0.11,0.448,0.425,0.586,0.848,0.572c0.097-0.003,0.196,0.006,0.29,0.026
	c0.043,0.01,0.078,0.06,0.115,0.091c-0.066,0.164-0.119,0.308-0.181,0.448c-0.067,0.155-0.14,0.309-0.211,0.463
	c-0.111-0.124-0.226-0.245-0.333-0.372c-0.242-0.287-0.482-0.576-0.72-0.867c-0.042-0.053-0.111-0.142-0.095-0.171
	C22.928,11.003,23.016,10.93,23.095,10.852z M17.518,8.411c0.077-0.058,0.155-0.116,0.239-0.161
	c0.076-0.041,0.161-0.065,0.242-0.098c0.005,0.096,0.034,0.198,0.005,0.281c-0.017,0.046-0.13,0.06-0.201,0.082
	c-0.025,0.009-0.055-0.001-0.103-0.003C17.665,8.51,17.609,8.507,17.555,8.5c-0.027-0.003-0.053-0.014-0.08-0.021
	C17.488,8.457,17.498,8.426,17.518,8.411z M15.656,7.473c0.336-0.115,0.336-0.113,0.336,0.242c0,0.069-0.005,0.141,0.004,0.209
	c0.046,0.391,0.38,0.556,0.687,0.31c0.159-0.128,0.162-0.047,0.206,0.062c0.035,0.089,0.004,0.133-0.087,0.134
	C16.62,8.431,16.438,8.43,16.256,8.43c-0.001,0.005-0.001,0.01-0.002,0.015c-0.25-0.023-0.499-0.048-0.749-0.07
	c-0.042-0.004-0.084-0.011-0.125-0.008c-0.118,0.008-0.276,0.07-0.342,0.018c-0.081-0.065-0.085-0.226-0.12-0.346
	c-0.059-0.201-0.118-0.402-0.172-0.604c-0.01-0.037,0.008-0.079,0.012-0.119c0.033,0.012,0.08,0.014,0.099,0.038
	C15.087,7.647,15.367,7.571,15.656,7.473z M14.564,5.638c0.082-0.008,0.159-0.046,0.274-0.081c0.01,0.053,0.035,0.103,0.021,0.132
	c-0.07,0.137-0.147,0.27-0.232,0.396c-0.033,0.049-0.095,0.079-0.143,0.117c-0.026-0.047-0.061-0.091-0.076-0.141
	c-0.018-0.053-0.014-0.111-0.024-0.166C14.357,5.748,14.393,5.653,14.564,5.638z M13.108,2.665c0.216-0.1,0.443-0.175,0.67-0.245
	c0.155-0.049,0.196-0.005,0.183,0.227c-0.078,0.317-0.166,0.7-0.27,1.078c-0.026,0.094-0.104,0.066-0.156,0.001
	c-0.122-0.154-0.242-0.31-0.363-0.463c-0.044-0.056-0.087-0.111-0.136-0.161c-0.067-0.069-0.139-0.133-0.209-0.199
	C12.92,2.821,13.001,2.714,13.108,2.665z M10.994,1.905c0.283-0.277,0.618-0.474,0.979-0.628c0.035-0.016,0.1,0.034,0.152,0.055
	C12.059,1.668,12,1.968,11.936,2.267c-0.005,0.021-0.065,0.052-0.089,0.045c-0.277-0.091-0.554-0.188-0.829-0.284
	C10.945,2.002,10.945,1.955,10.994,1.905z M9.002,1.808c0.012-0.024,0.029-0.047,0.045-0.069c0.07-0.097,0.141-0.192,0.212-0.289
	c0.05,0.121,0.116,0.238,0.146,0.363c0.034,0.141-0.04,0.185-0.323,0.195c-0.023-0.009-0.084-0.03-0.143-0.053
	C8.96,1.906,8.979,1.856,9.002,1.808z M6.838,2.39c0.025-0.062,0.061-0.122,0.102-0.176c0.02-0.025,0.074-0.059,0.089-0.05
	c0.044,0.027,0.074,0.074,0.1,0.102C7.131,2.359,6.943,2.504,6.864,2.48C6.847,2.476,6.828,2.414,6.838,2.39z M2.264,7.896
	C2.212,7.825,2.158,7.754,2.105,7.683c0.047-0.035,0.091-0.088,0.143-0.098c0.051-0.01,0.11,0.024,0.195,0.046
	C2.368,7.742,2.316,7.819,2.264,7.896z M4.087,7.771c-0.009,0.055-0.032,0.106-0.046,0.16C3.998,8.085,4.042,8.268,3.889,8.385
	C3.788,8.27,3.682,8.16,3.59,8.039C3.498,7.917,3.418,7.785,3.339,7.655C3.256,7.519,3.281,7.47,3.445,7.443
	C3.5,7.435,3.556,7.435,3.611,7.432c0.056-0.004,0.111-0.007,0.156-0.01C3.898,7.405,4.02,7.391,4.141,7.375
	C4.123,7.507,4.107,7.64,4.087,7.771z M5.237,11.503l0.024,0.017L5.233,11.53L5.237,11.503z M3.936,12.338
	c-0.059,0.035-0.123,0.067-0.188,0.079c-0.057,0.01-0.122-0.001-0.176-0.022c-0.021-0.008-0.035-0.088-0.019-0.111
	c0.035-0.05,0.089-0.088,0.141-0.123c0.02-0.013,0.054-0.002,0.109-0.002c0.026,0.007,0.08,0.018,0.131,0.037
	c0.022,0.01,0.059,0.04,0.056,0.054C3.982,12.282,3.963,12.322,3.936,12.338z M5.766,13.115c-0.315,0.109-0.637,0.203-0.964,0.305
	c-0.229-0.072-0.46-0.129-0.679-0.218c-0.157-0.064-0.145-0.221,0.021-0.309c0.346-0.182,0.698-0.354,1.046-0.532
	c0.092-0.048,0.154-0.045,0.18,0.073c0.05,0.232,0.207,0.393,0.386,0.531C5.826,13.021,5.85,13.086,5.766,13.115z M14.715,15.113
	c-0.104,0.044-0.207,0.088-0.309,0.137c-0.379,0.18-0.764,0.35-1.134,0.548c-0.487,0.261-0.838,0.653-1.026,1.178
	c-0.046,0.127-0.069,0.218-0.25,0.149c-0.246-0.094-0.429,0.048-0.58,0.234c-0.025,0.029-0.068,0.044-0.104,0.065
	c-0.008-0.039-0.034-0.086-0.021-0.118c0.191-0.479,0.281-0.998,0.568-1.44c0.194-0.3,0.436-0.547,0.766-0.699
	c0.179-0.082,0.358-0.163,0.527-0.263c0.435-0.256,0.91-0.25,1.389-0.231c0.146,0.005,0.271,0.165,0.262,0.406
	C14.791,15.083,14.752,15.097,14.715,15.113z M19.435,23.454c-0.037,0.066-0.231,0.029-0.334,0.08
	c-0.389,0.191-0.792,0.366-1.147,0.61c-1.159,0.798-2.226,1.707-3.168,2.759c-0.162,0.181-0.364,0.325-0.55,0.485
	c-0.001,0.008-0.003,0.015-0.004,0.023c-0.011,0.004-0.021,0.005-0.03,0.01c-0.006,0.006-0.012,0.012-0.018,0.018
	c0.006-0.006,0.01-0.014,0.016-0.018c0,0,0.001,0,0.002,0c0.006-0.008,0.013-0.014,0.02-0.021c0.005-0.004,0.01-0.008,0.015-0.012
	c0.028-0.231,0.239-0.35,0.343-0.535c0.082-0.146,0.208-0.267,0.292-0.411c0.28-0.483,0.132-0.824-0.412-0.963
	c-0.037-0.01-0.071-0.031-0.106-0.047c0.034-0.022,0.066-0.05,0.104-0.066c0.243-0.109,0.486-0.217,0.73-0.324
	c0.36-0.158,0.446-0.286,0.396-0.688c-0.058-0.459-0.171-0.912-0.203-1.372c-0.043-0.629-0.051-1.262-0.039-1.894
	c0.006-0.338,0.23-0.604,0.458-0.828c0.197-0.192,0.616-0.107,0.797,0.119c0.251,0.318,0.483,0.654,0.757,0.953
	s0.559,0.604,0.891,0.829c0.282,0.191,0.629,0.31,0.964,0.391c0.155,0.038,0.172,0.081,0.175,0.201
	c0.003,0.111,0.016,0.223,0.026,0.334C19.42,23.213,19.484,23.364,19.435,23.454z M30.67,26.236
	c0.003,0.716-0.237,1.337-0.671,1.905c-0.335,0.44-0.698,0.857-1.142,1.171c-0.442,0.313-0.951,0.534-1.435,0.789
	c-0.832,0.439-1.775,0.505-2.654,0.788c-0.452,0.146-0.909,0.154-1.372,0.14c-0.027-0.001-0.055-0.014-0.082-0.021
	c0.023-0.023,0.041-0.059,0.068-0.069c0.271-0.113,0.539-0.24,0.818-0.33c0.937-0.302,1.768-0.78,2.511-1.421
	c0.469-0.403,0.819-0.886,1.001-1.479c0.058-0.186,0.104-0.348,0.356-0.303c0.056,0.01,0.134-0.038,0.186-0.079
	c0.099-0.077,0.08-0.227-0.03-0.278c-0.05-0.022-0.107-0.032-0.162-0.037c-0.127-0.011-0.253-0.003-0.264-0.19
	c-0.015-0.253,0.004-0.304,0.212-0.394c0.116-0.05,0.239-0.086,0.346-0.151c0.149-0.092,0.201-0.26,0.147-0.398
	c-0.064-0.165-0.22-0.253-0.407-0.216C28,25.68,27.91,25.725,27.814,25.747c-0.026,0.006-0.079-0.02-0.09-0.043
	c-0.014-0.033-0.015-0.095,0.007-0.116c0.047-0.047,0.107-0.086,0.17-0.111c0.181-0.075,0.37-0.133,0.547-0.217
	c0.204-0.096,0.297-0.284,0.237-0.436c-0.07-0.182-0.273-0.293-0.484-0.222c-0.223,0.075-0.432,0.195-0.648,0.291
	c-0.033,0.015-0.075,0.005-0.113,0.006c0.004-0.048-0.012-0.118,0.013-0.139c0.131-0.104,0.267-0.204,0.41-0.287
	c0.206-0.12,0.427-0.215,0.63-0.338c0.149-0.09,0.262-0.22,0.221-0.417c-0.034-0.17-0.182-0.284-0.418-0.278
	c-0.162,0.004-0.338,0.032-0.484,0.1c-0.254,0.116-0.494,0.267-0.732,0.412c-0.094,0.056-0.172,0.104-0.254-0.003
	c-0.255-0.337-0.646-0.491-0.987-0.703c-0.206-0.127-0.476-0.151-0.716-0.225c-0.171-0.053-0.34-0.11-0.51-0.165
	c0.082-0.156,0.163-0.312,0.246-0.469c0.031-0.062,0.068-0.121,0.099-0.185c0.082-0.17-0.008-0.298-0.111-0.418
	c-0.103-0.117-0.229-0.086-0.347-0.028c-0.101,0.048-0.203,0.101-0.287,0.173c-0.438,0.377-0.832,0.795-1.166,1.27
	c-0.102,0.144-0.156,0.3-0.133,0.475c0.039,0.292,0.068,0.586,0.131,0.873c0.043,0.196,0.001,0.324-0.174,0.418
	c-0.602,0.325-1.075,0.807-1.558,1.278c-0.159,0.157-0.341,0.292-0.519,0.431c-0.088,0.068-0.188,0.121-0.282,0.181
	c-0.035-0.101-0.072-0.201-0.106-0.303c-0.111-0.335-0.379-0.405-0.684-0.413c-0.003,0.003-0.006,0.006-0.01,0.009
	c-0.01,0.002-0.019,0.004-0.027,0.005c-0.021,0.017-0.041,0.034-0.062,0.051c-0.007-0.012-0.014-0.023-0.021-0.036
	c0.028-0.004,0.056-0.009,0.083-0.015c0.006-0.005,0.012-0.01,0.018-0.015c0.007,0,0.014,0.001,0.02,0.001
	c0.369-0.325,0.717-0.68,1.189-0.864c0.293-0.115,0.354-0.267,0.227-0.564c-0.141-0.335-0.301-0.661-0.445-0.994
	c-0.285-0.663-0.312-1.337-0.026-2.003c0.177-0.411,0.382-0.803,0.763-1.09c0.394-0.298,0.801-0.288,1.236-0.171
	c0.229,0.062,0.457,0.135,0.687,0.195c0.185,0.048,0.266-0.036,0.224-0.222c-0.064-0.282-0.323-0.536-0.599-0.583
	c-0.526-0.091-1.056-0.133-1.591-0.111c-0.34,0.014-0.627,0.12-0.86,0.375c-0.313,0.344-0.609,0.697-0.818,1.118
	c-0.107,0.217-0.114,0.215-0.347,0.108c-1.287-0.593-2.006-1.613-2.271-2.987c-0.148-0.771-0.319-1.536-0.502-2.299
	c-0.075-0.311-0.2-0.611-0.318-0.911c-0.071-0.186-0.145-0.35-0.055-0.562c0.078-0.184,0.021-0.306-0.174-0.357
	c-0.372-0.098-0.336-0.445-0.46-0.689c-0.024-0.05,0.038-0.157,0.081-0.225c0.061-0.093,0.15-0.168,0.21-0.263
	c0.074-0.117,0.067-0.24-0.03-0.349c-0.099-0.111-0.213-0.125-0.34-0.051c-0.023,0.014-0.047,0.031-0.072,0.042
	c-0.079,0.034-0.12,0.191-0.24,0.089c-0.127-0.107-0.175-0.333-0.098-0.443c0.097-0.139,0.209-0.265,0.309-0.4
	c0.112-0.154,0.113-0.276,0.015-0.38c-0.107-0.111-0.261-0.107-0.413,0.018c-0.065,0.053-0.115,0.125-0.179,0.179
	c-0.059,0.05-0.127,0.087-0.191,0.13c-0.047-0.11-0.118-0.218-0.134-0.333c-0.01-0.068,0.062-0.151,0.106-0.223
	c0.074-0.119,0.158-0.232,0.234-0.35c0.084-0.131,0.096-0.261-0.015-0.387c-0.116-0.131-0.244-0.113-0.377-0.031
	c-0.036,0.022-0.069,0.049-0.102,0.074c-0.056,0.045-0.07,0.038-0.111-0.032c-0.17-0.299-0.191-0.298-0.547-0.109
	c-0.021,0.012-0.047,0.015-0.071,0.021c-0.002-0.022-0.014-0.051-0.003-0.066c0.115-0.19,0.164-0.377,0.057-0.597
	c-0.033-0.067,0.02-0.188,0.055-0.273c0.237-0.571,0.124-1.125-0.061-1.683c-0.098-0.295-0.324-0.406-0.596-0.46
	c-0.223-0.045-0.391,0.07-0.437,0.29c-0.017,0.081-0.021,0.17-0.007,0.251c0.127,0.755-0.158,1.368-0.645,1.914
	c-0.046,0.052-0.099,0.117-0.159,0.133c-0.217,0.055-0.35,0.146-0.427,0.39c-0.051,0.157-0.277,0.261-0.434,0.376
	c-0.033,0.024-0.109,0.002-0.16-0.014c-0.066-0.022-0.127-0.061-0.19-0.091c-0.133-0.063-0.276-0.11-0.386,0.021
	c-0.106,0.126-0.067,0.27,0.039,0.38c0.106,0.111,0.081,0.181-0.029,0.271c-0.342,0.281-0.483,0.293-0.855,0.033
	c-0.127-0.088-0.236-0.205-0.37-0.277c-0.073-0.04-0.209-0.05-0.267-0.007c-0.059,0.045-0.088,0.176-0.074,0.26
	c0.036,0.221,0.193,0.364,0.375,0.484c0.035,0.023,0.051,0.077,0.075,0.116C9.078,11.955,9.038,11.957,9,11.949
	c-0.025-0.005-0.051-0.034-0.075-0.032c-0.415,0.028-0.771-0.104-1.076-0.383C7.811,11.5,7.744,11.47,7.695,11.477
	c-0.091,0.012-0.199,0.03-0.258,0.089c-0.041,0.043-0.046,0.181-0.008,0.23c0.127,0.163,0.282,0.306,0.424,0.458
	c0.033,0.034,0.058,0.078,0.086,0.117c-0.038,0.018-0.074,0.039-0.113,0.054c-0.272,0.104-0.521,0.051-0.761-0.103
	c-0.116-0.074-0.239-0.156-0.37-0.185c-0.223-0.049-0.34,0.092-0.292,0.318c0.013,0.063,0.034,0.124,0.052,0.186
	c0.005,0.001,0.009,0.002,0.014,0.002c0.003,0.009,0.006,0.017,0.01,0.024c0.009,0.006,0.018,0.011,0.025,0.017
	c-0.008-0.004-0.018-0.004-0.021-0.01C6.48,12.673,6.48,12.67,6.479,12.668l-0.021-0.014c-0.001-0.004-0.002-0.008-0.003-0.013
	c-0.324-0.024-0.493-0.277-0.691-0.482c-0.021-0.021-0.009-0.109,0.017-0.128c0.078-0.059,0.171-0.096,0.256-0.145
	c0.705-0.406,1.413-0.808,2.112-1.224c0.352-0.211,0.46-0.521,0.363-0.925C8.503,9.697,8.49,9.655,8.491,9.614
	C8.5,8.805,8.155,8.089,7.891,7.352c-0.215-0.598-0.856-1.063-1.764-0.97c-0.939,0.096-1.835,0.393-2.77,0.49
	c-0.586,0.062-1.17,0.137-1.755,0.206C1.491,7.091,1.38,7.104,1.27,7.125C1.072,7.161,1.019,7.109,1.092,6.916
	C1.17,6.705,1.26,6.497,1.37,6.303c0.05-0.089,0.151-0.169,0.247-0.211c0.898-0.395,1.785-0.824,2.773-0.961
	c0.283-0.039,0.541-0.146,0.741-0.365c0.656-0.72,1.504-1.095,2.41-1.397C8.169,3.16,8.797,3.091,9.446,3.107
	c0.294,0.007,0.59,0.013,0.885,0.002c0.349-0.013,0.668,0.079,0.97,0.237c0.236,0.123,0.471,0.255,0.691,0.403
	c0.246,0.166,0.447,0.381,0.594,0.646c0.285,0.517,0.561,1.037,0.638,1.636c0.001,0.014,0.003,0.028,0.009,0.041
	c0.434,0.895,0.667,1.879,1.217,2.725c0.12,0.185,0.257,0.328,0.499,0.33c0.065,0.001,0.13,0.041,0.196,0.057
	c0.258,0.061,0.514,0.158,0.773,0.171c1.083,0.054,2.15,0.201,3.182,0.536c0.463,0.15,0.917,0.346,1.297,0.681
	c0.494,0.435,1.046,0.812,1.501,1.285c0.651,0.676,1.281,1.384,1.762,2.196c0.46,0.776,0.731,1.635,0.938,2.513
	c0.144,0.606,0.196,1.218,0.182,1.838c-0.007,0.315,0.059,0.612,0.193,0.896c0.275,0.584,0.535,1.176,0.831,1.748
	c0.317,0.614,0.816,1.025,1.495,1.205c0.568,0.15,1.134,0.316,1.705,0.453c0.317,0.077,0.569,0.234,0.77,0.481
	c0.331,0.405,0.606,0.847,0.782,1.34c0.073,0.207,0.106,0.436,0.116,0.656C30.689,25.533,30.669,25.885,30.67,26.236z M20.971,13
	c-0.281,0.157-0.556,0.331-0.85,0.46c-0.321,0.141-0.43,0.378-0.422,0.702c0.006,0.238,0.008,0.478,0.006,0.716
	c0,0.055-0.021,0.108-0.031,0.163c-0.033-0.04-0.071-0.076-0.099-0.119c-0.229-0.361-0.322-0.4-0.719-0.232
	c-0.134,0.056-0.191,0.022-0.199-0.096c-0.02-0.293-0.017-0.588-0.032-0.881c-0.033-0.559,0.262-0.885,0.751-1.078
	c0.065-0.025,0.13-0.051,0.196-0.074c0.487-0.176,0.977-0.349,1.461-0.529c0.07-0.026,0.126-0.094,0.188-0.142
	c-0.056-0.056-0.104-0.132-0.172-0.164c-0.084-0.04-0.19-0.071-0.281-0.061c-0.334,0.042-0.665,0.096-0.995,0.159
	c-0.343,0.066-0.68,0.166-1.024,0.22c-0.286,0.045-0.5,0.182-0.657,0.409c-0.187,0.268-0.318,0.562-0.327,0.896
	c-0.007,0.224-0.002,0.449-0.002,0.597c-0.032,0.57,0.017,1.055,0.154,1.532c0.058,0.199,0.082,0.411,0.1,0.619
	c0.014,0.171,0.096,0.246,0.253,0.283c0.173,0.042,0.306-0.005,0.399-0.151c0.098-0.153,0.185-0.314,0.283-0.467
	c0.034-0.054,0.089-0.095,0.134-0.141c0.032,0.045,0.079,0.086,0.094,0.136c0.101,0.335,0.198,0.67,0.288,1.007
	c0.069,0.26,0.16,0.327,0.419,0.277c0.231-0.043,0.394-0.221,0.411-0.464c0.01-0.125-0.007-0.252-0.004-0.379
	c0.015-0.547,0.037-1.093,0.045-1.639c0.004-0.307,0.139-0.492,0.427-0.595c0.156-0.056,0.308-0.145,0.438-0.246
	c0.104-0.081,0.207-0.193,0.254-0.313c0.06-0.152-0.01-0.302-0.138-0.412C21.201,12.894,21.088,12.936,20.971,13z M8.244,4.999
	C8.224,5.108,8.229,5.222,8.222,5.334c0.006,0.112,0.004,0.225,0.02,0.335C8.342,6.38,8.742,6.564,9.36,6.196
	c0.206-0.122,0.296-0.312,0.281-0.524C9.613,5.285,9.468,4.937,9.162,4.679C8.838,4.405,8.324,4.586,8.244,4.999z M2.869,5.745
	C2.646,5.746,2.299,6,2.251,6.149c-0.05,0.159,0.052,0.329,0.218,0.336c0.24,0.009,0.435-0.106,0.575-0.288
	C3.092,6.136,3.098,6,3.062,5.928C3.02,5.84,2.913,5.783,2.869,5.745z"></path>
  </g>
 
 
 <g id="computer-imac" data-iconmelon="Streamline Icon Set:3be707c196ae55d3a5b6f81f0f2450ad">
    <g id="Expanded">
      <g>
        <g>
          <path  d="M29.333,26.667H2.667C1.196,26.667,0,25.471,0,24V4c0-1.471,1.196-2.667,2.667-2.667h26.667
				C30.804,1.333,32,2.529,32,4v20C32,25.471,30.804,26.667,29.333,26.667z M2.667,2.667C1.931,2.667,1.333,3.265,1.333,4v20
				c0,0.735,0.598,1.333,1.333,1.333h26.667c0.736,0,1.334-0.598,1.334-1.333V4c0-0.735-0.598-1.333-1.334-1.333H2.667z"></path>
        </g>
        <g>
          <path  d="M25.333,30.667H6.667C6.299,30.667,6,30.368,6,30s0.299-0.667,0.667-0.667h18.667
				C25.701,29.333,26,29.632,26,30S25.701,30.667,25.333,30.667z"></path>
        </g>
        <g>
          <path  d="M20.68,30.667c-0.004,0-0.009,0-0.013,0h-9.333c-0.214,0-0.416-0.104-0.541-0.277
				c-0.125-0.174-0.159-0.397-0.092-0.601l1.333-4c0.092-0.272,0.346-0.456,0.633-0.456h6.667c0.288,0,0.542,0.184,0.633,0.456
				l1.293,3.881c0.057,0.097,0.088,0.21,0.088,0.33C21.347,30.368,21.048,30.667,20.68,30.667z M12.258,29.333h7.484l-0.89-2.666
				h-5.705L12.258,29.333z"></path>
        </g>
        <g>
          <path  d="M29.333,21.333H2.667V4h26.667V21.333z M4,20h24V5.333H4V20z"></path>
        </g>
        <g>
          <circle  cx="16" cy="23.333" r="1.333"></circle>
        </g>
      </g>
    </g>
  </g>
  <g id="shoes-snickers-keds" data-iconmelon="Streamline Icon Set:16eb3f90c7800d9cdce5d76f3ca00fa8">
    <g id="Expanded">
      <g>
        <g>
          <path  d="M31.333,29.333H0.667C0.298,29.333,0,29.035,0,28.667v-9.334c0-1.103,0.897-2,2-2h1.333
				C3.702,17.333,4,17.632,4,18c0,0.444,1.729,1.333,4,1.333c2.729,0,4-0.795,4-1.333c0-0.217,0.105-0.42,0.283-0.544
				c0.178-0.125,0.404-0.154,0.608-0.084l17.782,6.352C31.467,24.007,32,24.763,32,25.606v3.061
				C32,29.035,31.702,29.333,31.333,29.333z M1.333,28h29.333v-2.394c0-0.281-0.178-0.533-0.442-0.628l-17.116-6.112
				c-0.621,1.117-2.491,1.801-5.109,1.801c-2.199,0-4.546-0.749-5.172-2H2c-0.368,0-0.667,0.299-0.667,0.666V28z"></path>
        </g>
        <g>
          <rect x="0.667" y="25.333"  width="30.667" height="1.334"></rect>
        </g>
        <g>
          <path  d="M14.667,21.333c-0.17,0-0.34-0.064-0.471-0.193c-0.26-0.261-0.262-0.683-0.002-0.943l1.435-1.44
				c0.261-0.259,0.682-0.262,0.943-0.002c0.261,0.261,0.262,0.683,0.002,0.943l-1.434,1.44
				C15.009,21.267,14.838,21.333,14.667,21.333z"></path>
        </g>
        <g>
          <path  d="M17.333,22c-0.17,0-0.341-0.065-0.471-0.195c-0.261-0.261-0.261-0.683,0-0.942l1.229-1.229
				c0.26-0.26,0.682-0.26,0.942,0c0.261,0.261,0.261,0.683,0,0.943l-1.229,1.228C17.675,21.935,17.505,22,17.333,22z"></path>
        </g>
        <g>
          <path  d="M16.667,26h-1.333v-0.667c0-1.471,1.196-2.666,2.667-2.666h4c0.318,0,0.667-0.449,0.667-0.857H24
				c0,1.037-0.821,2.19-2,2.19h-4c-0.735,0-1.333,0.598-1.333,1.333V26z"></path>
        </g>
        <g>
          <path  d="M4.667,26.667C4.298,26.667,4,26.368,4,26c0-1.838-1.495-3.333-3.333-3.333C0.298,22.667,0,22.368,0,22
				s0.298-0.667,0.667-0.667c2.573,0,4.667,2.094,4.667,4.667C5.333,26.368,5.036,26.667,4.667,26.667z"></path>
        </g>
        <g>
          <path  d="M19.333,14.666c-0.074,0-0.15-0.013-0.224-0.039L1.328,8.277C0.534,7.994,0,7.237,0,6.395V3.334
				c0-0.369,0.298-0.667,0.667-0.667h30.667C31.702,2.667,32,2.965,32,3.334v9.333c0,1.103-0.897,1.999-2,1.999h-1.333
				C28.298,14.666,28,14.369,28,14c0-0.445-1.729-1.333-4-1.333c-2.729,0-4,0.795-4,1.333c0,0.217-0.104,0.42-0.282,0.545
				C19.604,14.625,19.469,14.666,19.333,14.666z M29.173,13.334H30c0.368,0,0.667-0.299,0.667-0.667V4H1.333v2.395
				c0,0.28,0.178,0.533,0.442,0.627l17.116,6.113c0.621-1.118,2.49-1.801,5.108-1.801C26.198,11.334,28.546,12.082,29.173,13.334z"></path>
        </g>
        <g>
          <rect x="0.667" y="5.334"  width="30.667" height="1.333"></rect>
        </g>
        <g>
          <path  d="M15.899,13.439c-0.17,0-0.341-0.064-0.471-0.193c-0.261-0.261-0.262-0.682-0.002-0.943l1.434-1.439
				c0.262-0.26,0.682-0.263,0.943-0.002c0.261,0.261,0.262,0.682,0.002,0.943l-1.434,1.439
				C16.241,13.375,16.069,13.439,15.899,13.439z"></path>
        </g>
        <g>
          <path  d="M13.439,12.562c-0.171,0-0.342-0.065-0.472-0.195c-0.261-0.261-0.261-0.682,0-0.942l1.228-1.229
				c0.261-0.261,0.682-0.261,0.943,0s0.261,0.683,0,0.943l-1.228,1.228C13.78,12.496,13.609,12.562,13.439,12.562z"></path>
        </g>
        <g>
          <path  d="M9.333,10.19H8C8,9.154,8.822,8,10,8h4c0.735,0,1.333-0.598,1.333-1.333V6h1.333v0.667
				c0,1.471-1.196,2.667-2.667,2.667h-4C9.682,9.334,9.333,9.782,9.333,10.19z"></path>
        </g>
        <g>
          <path  d="M31.333,10.667c-2.572,0-4.666-2.094-4.666-4.667c0-0.368,0.298-0.666,0.666-0.666
				C27.702,5.334,28,5.632,28,6c0,1.838,1.495,3.334,3.333,3.334C31.702,9.334,32,9.632,32,10
				C32,10.369,31.702,10.667,31.333,10.667z"></path>
        </g>
      </g>
    </g>
  </g>
  <g id="prize" data-iconmelon="Line icon set:7c07222be394ea6e037c35149dba5e43">
    <g id="Prize">
      <g>
        <path  d="M27.904,4.655c-0.03-0.013-0.062-0.009-0.095-0.02C27.946,3.472,28.026,2.263,28.026,1
			c0-0.552-0.447-1-1-1h-22c-0.552,0-1,0.448-1,1c0,1.261,0.08,2.468,0.217,3.631C4.202,4.643,4.162,4.639,4.121,4.655
			c-3.394,1.398-5.018,5.299-3.62,8.694c0.678,1.645,1.956,2.928,3.598,3.611c0.826,0.344,1.692,0.516,2.561,0.516
			c0.674,0,1.346-0.107,1.999-0.313c1.089,1.739,2.229,3.188,3.261,4.338c0.048,0.138,0.118,0.269,0.229,0.378
			c0.566,0.566,0.879,1.319,0.879,2.121s-0.312,1.555-0.879,2.121S10.827,27,10.026,27c-2.206,0-4,1.794-4,4c0,0.553,0.448,1,1,1h18
			c0.553,0,1-0.447,1-1c0-2.206-1.793-4-4-4c-0.801,0-1.555-0.312-2.121-0.879S19.026,24.802,19.026,24s0.312-1.555,0.879-2.121
			c0.111-0.109,0.182-0.24,0.229-0.378c1.031-1.149,2.17-2.594,3.256-4.33c0.646,0.202,1.311,0.306,1.977,0.306
			c0.867,0,1.734-0.172,2.561-0.516c1.643-0.684,2.919-1.967,3.598-3.611C32.923,9.954,31.298,6.054,27.904,4.655z M4.868,15.114
			c-1.148-0.479-2.043-1.375-2.518-2.526c-0.93-2.257,0.064-4.815,2.201-5.906c0.627,3.353,1.76,6.252,3.065,8.688
			C6.702,15.564,5.751,15.482,4.868,15.114z M22.026,29c0.74,0,1.386,0.402,1.731,1H8.296c0.346-0.598,0.991-1,1.73-1
			c1.336,0,2.59-0.521,3.536-1.465c0.834-0.835,1.315-1.919,1.421-3.082c0.245,0.199,0.408,0.32,0.455,0.355
			C15.614,24.936,15.82,25,16.026,25c0.207,0,0.414-0.064,0.588-0.191c0.048-0.035,0.211-0.156,0.456-0.355
			c0.105,1.163,0.587,2.247,1.421,3.083C19.438,28.479,20.691,29,22.026,29z M16.026,22.715C13.86,20.866,6.448,13.709,6.044,2
			h19.965C25.606,13.709,18.192,20.866,16.026,22.715z M29.675,12.588c-0.475,1.151-1.369,2.048-2.518,2.526
			c-0.875,0.365-1.818,0.45-2.725,0.262c1.307-2.434,2.438-5.331,3.067-8.681C29.618,7.793,30.6,10.34,29.675,12.588z"></path>
      </g>
    </g>
  </g>
  <g id="directions" data-iconmelon="AHOY:1160d99a16bfba6299c1d48d290588c1">
    <g>
      <path  d="M10.863,0.415c-0.555-0.554-1.451-0.554-2.005,0L7.369,1.904L5.88,0.415c-0.554-0.554-1.451-0.554-2.005,0
		c-0.554,0.556-0.554,1.452,0,2.006L5.363,3.91L3.875,5.399c-0.554,0.554-0.554,1.45,0,2.004c0.277,0.277,0.64,0.416,1.002,0.416
		S5.603,7.681,5.88,7.403l1.489-1.488l1.489,1.488c0.277,0.277,0.64,0.416,1.003,0.416s0.726-0.139,1.002-0.416
		c0.554-0.554,0.554-1.45,0-2.004L9.374,3.91l1.489-1.489C11.417,1.867,11.417,0.971,10.863,0.415z"></path>
      <path  d="M26.647,13.774c0.187,0.612,0.749,1.008,1.356,1.008c0.138,0,0.276-0.021,0.414-0.062
		c0.749-0.228,1.171-1.019,0.945-1.769c-0.457-1.503-1.15-2.92-2.062-4.21c-0.451-0.639-1.335-0.79-1.977-0.34
		c-0.639,0.453-0.792,1.337-0.34,1.978C25.72,11.418,26.279,12.562,26.647,13.774z"></path>
      <path  d="M5.19,23.651c-0.421-0.659-1.296-0.852-1.958-0.433c-0.659,0.421-0.854,1.299-0.433,1.959
		c0.846,1.325,1.893,2.503,3.113,3.499c0.264,0.216,0.581,0.319,0.896,0.319c0.411,0,0.819-0.178,1.1-0.521
		c0.496-0.605,0.406-1.499-0.201-1.995C6.72,25.675,5.874,24.723,5.19,23.651z"></path>
      <path  d="M19.868,3.232c-1.487-0.489-3.043-0.739-4.625-0.739c-0.783,0-1.419,0.635-1.419,1.418
		s0.636,1.418,1.419,1.418c1.279,0,2.536,0.2,3.736,0.598c0.148,0.049,0.297,0.072,0.444,0.072c0.595,0,1.149-0.378,1.346-0.975
		C21.015,4.279,20.611,3.479,19.868,3.232z"></path>
      <path  d="M28.285,20.388c-0.738-0.265-1.55,0.123-1.812,0.86c-0.425,1.194-1.038,2.31-1.822,3.316
		c-0.481,0.617-0.371,1.509,0.247,1.989c0.259,0.201,0.566,0.3,0.871,0.3c0.421,0,0.84-0.188,1.12-0.547
		c0.97-1.246,1.729-2.626,2.256-4.107C29.407,21.463,29.023,20.651,28.285,20.388z"></path>
      <path  d="M18.446,28.73c-1.216,0.337-2.505,0.483-3.761,0.42c-0.765-0.021-1.446,0.568-1.484,1.351
		c-0.036,0.783,0.568,1.447,1.351,1.484C14.781,31.995,15.011,32,15.244,32c1.345,0,2.677-0.181,3.963-0.538
		c0.754-0.21,1.195-0.991,0.986-1.745C19.982,28.962,19.206,28.522,18.446,28.73z"></path>
    </g>
  </g>
  <g id="play" data-iconmelon="Dripicons:fa9c0a757d3f1ca1351ca516f50e974a">
    <path d="M6.937,32c-0.248,0-0.498-0.055-0.729-0.167c-0.578-0.28-0.945-0.866-0.945-1.508V1.675c0-0.642,0.367-1.228,0.945-1.508
	s1.265-0.205,1.769,0.193l18.125,14.325c0.402,0.318,0.637,0.802,0.637,1.314s-0.234,0.997-0.637,1.314L7.976,31.639
	C7.674,31.877,7.307,32,6.937,32z M8.612,5.135v21.73L22.36,16L8.612,5.135z"></path>
  </g>
  <g id="play1" data-iconmelon="Simple Line Icons:e49b2f5bafabafa76435cc0d94743a6f">
    <g>
      <path  d="M28.55,13.351L6.29,0.499c-2.268-1.307-4.568,0.089-4.568,2.64v25.703c0,1.865,1.131,3.16,2.752,3.16
		c0.598,0,1.207-0.17,1.811-0.521l22.271-12.855c1.094-0.638,1.723-1.602,1.723-2.642S29.649,13.982,28.55,13.351z M27.23,16.339
		L4.971,29.193c-0.283,0.163-0.452,0.176-0.497,0.176l-0.006,0.016c-0.031-0.034-0.113-0.191-0.113-0.543V3.139
		c0-0.353,0.082-0.51,0.126-0.528c0.038,0,0.207,0.013,0.496,0.176L27.23,15.642c0.308,0.166,0.396,0.323,0.415,0.332
		C27.626,16.015,27.538,16.169,27.23,16.339z"></path>
    </g>
  </g>     
      
      
      
      
      
      <g id="map" data-iconmelon="Jolly Icons:32f7fb55c65f36624fc5d78182b44f53">
    <g>
      <path fill-rule="evenodd" clip-rule="evenodd" d="M4.94,18.76c0.521-0.178,0.936-0.463,0.954-1.145
		c-0.571-0.484-1.436,0.068-1.432,0.764C4.653,18.475,4.614,18.801,4.94,18.76z"></path>
      <path fill-rule="evenodd" clip-rule="evenodd" d="M7.517,16.566c0.235-0.369,0.657-0.551,0.668-1.146
		c-0.17-0.084-0.243-0.266-0.572-0.19c-0.516,0.44-1.3,0.609-1.337,1.527C6.648,17.196,7.202,16.752,7.517,16.566z"></path>
      <path fill-rule="evenodd" clip-rule="evenodd" d="M10.38,13.99c0.449-0.124,0.636-0.51,0.763-0.955
		c-0.154-0.133-0.234-0.338-0.572-0.287c-0.595,0.378-1.966,0.829-1.337,1.814C9.845,14.601,10.118,14.3,10.38,13.99z"></path>
      <path fill-rule="evenodd" clip-rule="evenodd" d="M0.36,26.872c0.055,0.741-0.115,1.706,0.097,2.291
		c0.024,0.196,0.254,0.191,0.381,0.286c0.236-0.124,0.462,0.214,0.477,0c0.218,0.26,0.172,0.783,0.764,0.669
		c0.605,0.097,0.73-0.288,1.05-0.479c0.296-0.214,0.549-0.467,0.764-0.762c0.608-0.41,1.062-0.974,1.621-1.432
		c0.537-0.481,1.062-0.975,1.624-1.431c0.287-0.222,0.593-0.425,0.858-0.668c0.387-0.121,0.554-0.466,0.954-0.573
		c1.319,0.652,2.426,1.518,3.722,2.195c0.613,0.372,1.233,0.739,1.717,1.241c0.372,0.105,0.691,0.263,0.954,0.476
		c0.281-0.024,0.294,0.217,0.574,0.192c-0.044,0.298,0.203,0.304,0.475,0.286c0.732-0.288,1.284-0.753,1.815-1.241
		c0.603-0.414,1.21-0.824,1.718-1.336c0.744-0.273,1.086-0.95,1.812-1.24c0.214-0.297,0.643-0.376,0.859-0.669
		c0.335-0.173,0.553-0.463,0.954-0.572c1.289,0.842,2.185,2.077,3.341,3.054c0.33,0.178,0.439,0.575,0.857,0.668
		c0.259,0.282,0.441,0.641,0.859,0.764c0.312,0.228,0.32,0.761,0.858,0.764c0.359,0.181,0.438,0.645,1.05,0.573
		c0.371-0.18,0.484-0.485,0.572-0.955c0.093-0.491-0.069-1.031,0-1.527c0.154-0.355,0.311-0.708,0.383-1.146
		c0.508-4.231,0.162-9.315,0.382-13.837c0.172-0.642,0.09-1.508,0.096-2.29c0.003-0.804,0.115-1.602,0-2.195
		c-0.123-0.452-0.436-0.71-0.764-0.954c-0.38-0.225-0.634-0.575-1.051-0.764c-0.198-0.262-0.696-0.416-0.858-0.572
		c-0.081-0.078-0.081-0.028-0.191-0.095c-0.377-0.229-0.713-0.527-1.145-0.668c-0.601-0.577-1.344-1.009-2.004-1.527
		c-0.39-0.183-0.746-0.399-1.049-0.667c-0.4-0.207-0.511-0.699-1.051-0.765c-0.006-0.058-0.015-0.112-0.095-0.095
		c-0.13,0.03-0.184,0.136-0.382,0.095c-0.718,0.429-1.226,1.065-1.909,1.527c-0.834,0.534-1.667,1.068-2.48,1.623
		c-0.431,0.239-0.748,0.589-1.241,0.764c-0.114,0.235-0.328,0.373-0.573,0.477c-0.203,0.097-0.354,0.493-0.572,0.286
		c-1.198-0.519-2.154-1.281-3.244-1.908c-0.427-0.433-1.15-0.567-1.623-0.955c-0.685-0.206-1.146-0.636-2.004-0.669
		C9.102,3.072,8.837,3.382,8.28,3.396c-2.406,1.601-5.331,2.686-7.823,4.2c-0.13,0.347-0.124,0.831-0.383,1.049
		c-0.128,1.497-0.064,3.06,0,4.581C0.254,17.519-0.246,22.433,0.36,26.872z M2.078,28.59c-0.05-0.05,0.069-0.122,0.096-0.095
		C2.221,28.544,2.104,28.616,2.078,28.59z M2.173,9.027C2.316,8.916,2.564,8.908,2.651,8.74C3.06,8.609,3.279,8.287,3.699,8.168
		c0.688-0.396,1.281-0.883,2.005-1.24c0.625-0.457,1.476-0.688,2.1-1.146c0.481-0.058,0.593-0.488,1.146-0.477
		c0.312-0.197,0.6-0.419,0.954-0.572c0.967,0.718,2.067,1.304,3.054,2.003c0.486,0.372,1.078,0.64,1.527,1.05
		c0.562,0.264,0.885,0.769,1.526,0.954c0.909-0.109,1.521-0.514,2.099-0.954c0.601-0.419,1.247-0.789,1.814-1.24
		c1.269-0.734,2.289-1.719,3.53-2.48c0.07-0.09,0.173-0.146,0.287-0.192c0.573,0.477,1.066,1.033,1.812,1.337
		c0.641,0.41,1.271,0.829,2.005,1.145c0.345,0.482,0.855,0.798,1.337,1.146c0.404,0.391,0.824,0.765,1.336,1.05
		c-0.091,1.387-0.206,2.823-0.287,4.294c-0.236,4.274,0.03,9.145-0.191,13.552c-1.271-0.541-2.194-1.432-3.34-2.1
		c-1.244-0.537-1.982-1.58-3.34-2.003c-0.805,0.148-1.189,0.72-1.813,1.049c-0.467,0.456-1.104,0.741-1.525,1.241
		c-1.157,0.721-2.115,1.639-3.15,2.481c-0.368-0.076-0.424-0.466-0.667-0.667c-0.174-0.272-0.544-0.349-0.669-0.668
		c-0.759-0.324-1.259-0.905-2.1-1.146c-0.724-0.357-1.411-0.751-2.195-1.05c-0.22-0.288-0.598-0.421-0.763-0.764
		c-0.298-0.179-0.526-0.429-0.955-0.477c-0.629-0.058-1.012,0.133-1.336,0.381c-0.164,0.376-0.693,0.388-0.857,0.764
		c-0.344,0.196-0.516,0.566-0.86,0.763c-0.259,0.282-0.441,0.64-0.858,0.764c-0.474,0.608-1.115,1.047-1.527,1.717
		c-0.309,0.231-0.5,0.583-0.764,0.859c-0.064,0.222-0.315,0.256-0.38,0.477c-0.112,0.028-0.276,0.542-0.287,0.097
		c0.275-0.375-0.116-0.9-0.096-1.337C2.167,20.899,1.991,15.094,1.697,9.409C1.675,9.102,2.036,9.176,2.173,9.027z"></path>
      <path fill-rule="evenodd" clip-rule="evenodd" d="M13.242,16.375c0.021-0.075,0.08-0.111,0.192-0.095
		c0.337-0.364,0.028-0.987-0.287-1.241c-0.021-0.232-0.261-0.43-0.382-0.572C12.614,14.29,12.488,14,12.193,13.99
		c-0.326-0.042-0.287,0.285-0.478,0.381c0.058,0.515,0.409,0.736,0.573,1.145C12.597,15.812,12.688,16.325,13.242,16.375z"></path>
      <path fill-rule="evenodd" clip-rule="evenodd" d="M17.728,18.666c0.344-0.452,1.082-0.508,1.049-1.336
		c-0.074-0.022-0.109-0.08-0.095-0.191c-0.18-0.076-0.349-0.16-0.573-0.19c-0.015,0.11-0.149,0.103-0.285,0.095
		c-0.342,0.317-0.812,0.631-1.146,0.859c-0.033,0.023-0.069,0.158-0.096,0.191c-0.025,0.031-0.165-0.032-0.192,0
		c-0.035,0.046-0.078,0.249-0.094,0.286c-0.049,0.122-0.122,0.188-0.095,0.381C16.506,19.429,17.39,19.022,17.728,18.666z"></path>
      <path fill-rule="evenodd" clip-rule="evenodd" d="M20.973,12.749c0.253,0.071,0.656-0.053,0.953,0
		c0.595-0.168,1.16-0.367,1.814-0.477c0.453,0.373,0.644,1.008,0.953,1.526c0.355,0.472,0.434,1.221,1.432,1.049
		c0.112-0.175,0.25-0.323,0.382-0.477c-0.161-1.047-0.808-1.61-1.145-2.481c0.524-0.048,0.851-0.294,1.336-0.382
		c0.447-0.124,0.857-0.287,0.858-0.858c-0.318-1.31-1.949-0.252-2.863-0.191c-0.533-0.548-0.661-1.501-1.335-1.909
		c-0.577-0.004-0.66,0.486-0.764,0.954c0.059,0.64,0.406,0.992,0.571,1.528c-0.532,0.229-1.138,0.388-1.908,0.381
		c-0.246,0.327-0.794,0.351-0.764,0.954C20.639,12.543,20.706,12.675,20.973,12.749z"></path>
      <path fill-rule="evenodd" clip-rule="evenodd" d="M19.636,16.757c0.457,0.196,0.833-0.24,1.146-0.477
		c0.343-0.294,0.729-0.543,0.763-1.145c-0.57-0.713-1.379,0.171-1.812,0.477c-0.06,0.355-0.392,0.437-0.287,0.955
		C19.552,16.585,19.594,16.671,19.636,16.757z"></path>
      <path fill-rule="evenodd" clip-rule="evenodd" d="M15.341,18.855c0.119-0.564-0.209-0.681-0.382-0.954
		c-0.328-0.116-0.318-0.572-0.857-0.477h-0.191c-0.109,0.113-0.108,0.338-0.096,0.572C14.113,18.475,14.661,19.352,15.341,18.855z"></path>
      <path fill-rule="evenodd" clip-rule="evenodd" d="M22.976,12.653c-0.389,0.451-1.434,0.712-1.05,1.622
		c0.456,0.238,0.705-0.227,1.05-0.381c0.275-0.266,0.695-0.387,0.573-1.05C23.349,12.789,23.277,12.608,22.976,12.653z"></path>
    </g>
  </g>

  
  
  <g id="computer" data-iconmelon="Streamline Icon Set:348456d2852a6907b5762245a631801c">
    <g id="Expanded">
      <g>
        <g>
          <path  d="M16.667,31.333H3.333C1.496,31.333,0,29.838,0,28v-4c0-0.368,0.299-0.667,0.667-0.667
				c0.368,0,0.667,0.299,0.667,0.667c0,1.103,0.897,2,2,2h13.333c1.103,0,2-0.897,2-2c0-0.368,0.299-0.667,0.666-0.667
				C19.701,23.333,20,23.632,20,24v4C20,29.838,18.505,31.333,16.667,31.333z M1.333,26.665V28c0,1.103,0.897,2,2,2h13.333
				c1.103,0,2-0.897,2-2v-1.335c-0.558,0.419-1.25,0.668-2,0.668H3.333C2.583,27.333,1.891,27.084,1.333,26.665z"></path>
        </g>
        <g>
          <path  d="M26.667,31.333c-0.925,0-4.029-0.086-5.139-1.195c-0.125-0.125-0.195-0.294-0.195-0.471V2.334
				c0-0.177,0.07-0.347,0.195-0.472c1.109-1.109,4.214-1.195,5.139-1.195c0.924,0,4.028,0.086,5.138,1.195
				C31.93,1.987,32,2.157,32,2.334v27.333c0,0.177-0.07,0.346-0.195,0.471C30.695,31.247,27.591,31.333,26.667,31.333z
				 M22.667,29.34c0.594,0.348,2.043,0.66,4,0.66s3.406-0.312,4-0.66V2.66c-0.594-0.348-2.043-0.66-4-0.66s-3.406,0.312-4,0.66
				V29.34z"></path>
        </g>
        <g>
          <path  d="M18.8,24.399l-2.88-3.84c-0.576-0.768-1.493-1.227-2.453-1.227H6.533c-0.96,0-1.876,0.459-2.453,1.227
				l-2.88,3.84l-1.066-0.799l2.88-3.84C3.84,18.657,5.156,18,6.533,18h6.934c1.377,0,2.693,0.657,3.519,1.761l2.881,3.84
				L18.8,24.399z"></path>
        </g>
        <g>
          <path  d="M26.667,11c-1.838,0-3.334-1.495-3.334-3.333s1.496-3.333,3.334-3.333S30,5.829,30,7.667
				S28.505,11,26.667,11z M26.667,5.667c-1.104,0-2,0.897-2,2s0.896,2,2,2c1.103,0,2-0.897,2-2S27.77,5.667,26.667,5.667z"></path>
        </g>
        <g>
          <path  d="M24.667,11.667c-0.737,0-1.334,0.597-1.334,1.333c0,0.737,0.597,1.334,1.334,1.334
				C25.403,14.334,26,13.737,26,13C26,12.264,25.403,11.667,24.667,11.667L24.667,11.667z"></path>
        </g>
        <g>
          <path  d="M28.667,11.667c-0.737,0-1.334,0.597-1.334,1.333c0,0.737,0.597,1.334,1.334,1.334
				C29.403,14.334,30,13.737,30,13C30,12.264,29.403,11.667,28.667,11.667L28.667,11.667z"></path>
        </g>
      </g>
    </g>
  </g>
  <g id="calendar" data-iconmelon="Line icon set:8a13eab34e9d15f81a8b9fc7cd4fb37d">
    <g id="Calendar">
      <g>
        <path  d="M29,2c-0.553,0-1,0.447-1,1s0.447,1,1,1c0.552,0,1,0.448,1,1v5H2V5c0-0.552,0.448-1,1-1
			c0.553,0,1-0.447,1-1S3.553,2,3,2C1.346,2,0,3.346,0,5v24c0,1.654,1.346,3,3,3h26c1.654,0,3-1.346,3-3V5C32,3.346,30.654,2,29,2z
			 M30,29c0,0.552-0.448,1-1,1H3c-0.552,0-1-0.448-1-1V12h28V29z M6,6c0.553,0,1-0.447,1-1V1c0-0.553-0.447-1-1-1S5,0.447,5,1v4
			C5,5.553,5.447,6,6,6z M10,6c0.553,0,1-0.447,1-1V1c0-0.553-0.447-1-1-1S9,0.447,9,1v4C9,5.553,9.447,6,10,6z M14,6
			c0.553,0,1-0.447,1-1V1c0-0.553-0.447-1-1-1s-1,0.447-1,1v4C13,5.553,13.447,6,14,6z M18,6c0.553,0,1-0.447,1-1V1
			c0-0.553-0.447-1-1-1s-1,0.447-1,1v4C17,5.553,17.447,6,18,6z M22,6c0.553,0,1-0.447,1-1V1c0-0.553-0.447-1-1-1s-1,0.447-1,1v4
			C21,5.553,21.447,6,22,6z M26,6c0.553,0,1-0.447,1-1V1c0-0.553-0.447-1-1-1s-1,0.447-1,1v4C25,5.553,25.447,6,26,6z M21.5,25
			c-0.827,0-1.5-0.673-1.5-1.5c0-0.553-0.447-1-1-1s-1,0.447-1,1c0,1.93,1.57,3.5,3.5,3.5s3.5-1.57,3.5-3.5
			c0-0.979-0.403-1.864-1.053-2.5C24.597,20.364,25,19.479,25,18.5c0-1.93-1.57-3.5-3.5-3.5S18,16.57,18,18.5c0,0.553,0.447,1,1,1
			s1-0.447,1-1c0-0.827,0.673-1.5,1.5-1.5s1.5,0.673,1.5,1.5S22.327,20,21.5,20c-0.553,0-1,0.447-1,1s0.447,1,1,1
			c0.827,0,1.5,0.673,1.5,1.5S22.327,25,21.5,25z M7,26c0,0.553,0.447,1,1,1h5c0.553,0,1-0.447,1-1s-0.447-1-1-1H9.531
			c0.415-0.534,1-1.146,1.483-1.652C12.482,21.811,14,20.221,14,18.5c0-1.93-1.57-3.5-3.5-3.5S7,16.57,7,18.5c0,0.553,0.447,1,1,1
			s1-0.447,1-1c0-0.827,0.673-1.5,1.5-1.5s1.5,0.673,1.5,1.5c0,0.919-1.349,2.331-2.432,3.466C8.19,23.408,7,24.654,7,26z"></path>
      </g>
    </g>
  </g>
  <g id="linkedin" data-iconmelon="Flat Social Icons:01c61d24a0a5319e0d4efae034e4824a">
    <path d="M16,0C7.163,0,0,7.164,0,16s7.163,16,16,16c8.838,0,16-7.164,16-16S24.838,0,16,0z M11.522,22.691H8.403
	v-9.98h3.119V22.691z M9.883,11.463H9.86c-1.129,0-1.86-0.764-1.86-1.73C8,8.748,8.754,8,9.905,8c1.15,0,1.857,0.746,1.88,1.73
	C11.785,10.697,11.056,11.463,9.883,11.463z M24,22.691h-3.537v-5.164c0-1.353-0.552-2.275-1.77-2.275
	c-0.93,0-1.446,0.623-1.688,1.224c-0.09,0.216-0.075,0.515-0.075,0.816v5.399h-3.504c0,0,0.046-9.148,0-9.98h3.504v1.566
	c0.207-0.685,1.326-1.662,3.112-1.662c2.216,0,3.958,1.436,3.958,4.527V22.691z"></path>
  </g>
  <g id="arrow-right" data-iconmelon="Icon Set:66038db8e90c169c2dc68347f4e2c0e9">
    <path d="M25.723,15.341L11.659,1.278c-0.371-0.371-0.971-0.371-1.34,0L6.97,4.626
        c-0.37,0.369-0.37,0.969,0,1.34l10.045,10.046L6.97,26.059c-0.37,0.369-0.37,0.97,0,1.339l3.349,3.349
        c0.37,0.369,0.97,0.369,1.34,0L22.37,20.033c0.001-0.001,0.003-0.001,0.004-0.002l3.349-3.35
        C26.093,16.312,26.093,15.713,25.723,15.341z"></path>
  </g>
  <g id="arrow-top" data-iconmelon="Icon Set:d4aa6ecb176864a7e490ac615ef8e212">
    <path d="M30.745,21.034L20.031,10.322c0,0,0-0.001-0.001-0.002l-3.35-3.349
        c-0.369-0.37-0.969-0.37-1.34,0L1.278,21.034c-0.371,0.371-0.371,0.971,0,1.34l3.348,3.349c0.369,0.37,0.969,0.37,1.34,0
        l10.046-10.045l10.046,10.045c0.369,0.37,0.97,0.37,1.339,0l3.349-3.349C31.114,22.004,31.114,21.404,30.745,21.034z"></path>
  </g>
  <g id="arrow-left" data-iconmelon="Icon Set:33f568b5bbbd96e08f84a202e3245bc3">
    <path d="M14.677,16.011L24.723,5.964c0.37-0.369,0.37-0.97,0-1.339l-3.349-3.349
        c-0.37-0.369-0.97-0.369-1.34,0L9.321,11.99c0,0-0.001,0.001-0.002,0.001l-3.349,3.35c-0.37,0.369-0.37,0.968,0,1.34
        l14.063,14.062c0.371,0.371,0.971,0.371,1.34,0l3.349-3.348c0.37-0.369,0.37-0.969,0-1.34L14.677,16.011z"></path>
  </g>
  <g id="arrow-bottom" data-iconmelon="Icon Set:4f1f75449c6d8ae60061d79b867dc04d">
    <path d="M30.744,11.319l-3.348-3.349c-0.369-0.37-0.969-0.37-1.34,0L16.012,18.017
        L5.965,7.971c-0.369-0.37-0.969-0.37-1.338,0l-3.349,3.349c-0.37,0.37-0.37,0.97,0,1.34l14.064,14.063
        c0.369,0.37,0.969,0.37,1.34,0l14.062-14.063C31.115,12.289,31.115,11.689,30.744,11.319z"></path>
  </g>
  <g id="education-1" data-iconmelon="Icon Set:497fddb64cb64b7adc5307434ead8514">
    <path d="M4.042,17.975v2.084c1.538-0.51,3.446-0.949,5.488-0.949
        c1.678,0,2.777,0.305,3.512,0.699v-2.189c-0.871-0.285-1.979-0.482-3.4-0.49C7.349,17.113,5.495,17.484,4.042,17.975z
         M4.042,10.719v2.084c1.538-0.509,3.446-0.949,5.488-0.949c1.678,0,2.777,0.304,3.512,0.699v-2.189
        c-0.871-0.286-1.979-0.484-3.4-0.494C7.349,9.854,5.495,10.229,4.042,10.719z M4.042,14.411v2.084
        c1.538-0.51,3.446-0.949,5.488-0.949c1.678,0,2.777,0.304,3.512,0.699v-2.189c-0.871-0.286-1.979-0.484-3.4-0.494
        C7.349,13.545,5.495,13.919,4.042,14.411z M19.045,10.179v0.506v1.683v1.812v1.505v0.499c0.734-0.396,1.834-0.699,3.512-0.699
        c2.043,0,3.951,0.439,5.488,0.949v-0.749v-1.15v-1.915v-1.934v-0.151c-1.453-0.49-3.307-0.994-5.6-0.979
        C21.025,9.565,19.916,9.893,19.045,10.179z M19.045,17.619v2.189c0.734-0.395,1.834-0.699,3.512-0.699
        c2.043,0,3.951,0.439,5.488,0.949v-2.084c-1.453-0.49-3.307-0.861-5.6-0.846C21.025,17.137,19.916,17.334,19.045,17.619z
         M29.502,6.428c-1.577-0.743-3.905-1.451-7.057-1.429c-5.503,0.038-6.404,2.875-6.404,2.875s-0.898-2.837-6.4-2.875
        c-3.145-0.022-5.47,0.684-7.047,1.425c-2.195,1.165-2.516,2.602-2.552,4.225v12.576c0,0.018,0.004,0.031,0.004,0.049
        c0,2.432-0.025,3.534,4.092,3.008c0.018-0.003,0.035-0.005,0.052-0.007c0.267-0.035,0.549-0.076,0.851-0.124
        c0.083-0.014,0.145,0.002,0.218,0.003c1.01-0.097,2.027-0.151,2.95-0.151c1.944,0,3.688,0.24,4.931,0.622
        c0.028,0.007,0.057,0.014,0.083,0.021c0.488,0.125,0.932,0.35,1.75,0.35h2.144c0.818,0,1.26-0.225,1.748-0.35
        c0.023-0.006,0.049-0.013,0.074-0.019c1.243-0.383,2.99-0.624,4.938-0.624c0.89,0,1.866,0.052,2.839,0.143
        c0.1-0.012,0.207-0.014,0.329,0.006c0.296,0.047,0.572,0.087,0.834,0.121c0.028,0.004,0.056,0.008,0.083,0.011
        c3.213,0.409,3.894-0.182,4.038-1.622V9.892C31.861,8.579,31.342,7.408,29.502,6.428z M14.997,12.19L14.997,12.19v11.193
        c-0.894-0.739-2.502-1.511-5.355-1.531C6.558,21.83,4.26,22.51,2.684,23.237V8.928C4.36,8.245,6.834,7.482,9.53,7.482
        c2.835,0,4.04,0.859,4.559,1.58c0.002,0.002,0.003,0.002,0.005,0.005c0.083,0.111,0.195,0.261,0.313,0.442
        c0.016,0.025,0.03,0.048,0.046,0.074c0.085,0.136,0.171,0.289,0.251,0.462c0.013,0.029,0.025,0.06,0.038,0.09
        c0.079,0.185,0.151,0.386,0.205,0.612c0.005,0.023,0.008,0.048,0.013,0.071c0.053,0.244,0.088,0.508,0.088,0.8
        C15.049,11.842,15.028,12.027,14.997,12.19z M29.33,23.204c-1.573-0.714-3.847-1.373-6.885-1.353
        c-2.95,0.021-4.57,0.845-5.445,1.605V11.516h0.043c0.032-1.18,0.573-1.943,0.878-2.353c0.478-0.738,1.668-1.681,4.636-1.681
        c2.657,0,5.1,0.741,6.773,1.416V23.204z"></path>
  </g>
  <g id="check" data-iconmelon="Simple Line Icons:62e3519b8d1506453144dd389ae63264">
    <g>
      <path  d="M16.29,0.003l-0.296-0.002c-8.659,0-15.832,7.046-15.991,15.708c-0.161,8.822,6.884,16.128,15.707,16.289
		L16.006,32c8.659,0,15.833-7.048,15.991-15.707C32.156,7.471,25.111,0.165,16.29,0.003z M16.006,30.852l-0.276-0.004
		C7.543,30.701,1.002,23.919,1.152,15.731C1.297,7.69,7.958,1.15,15.994,1.15l0.277,0.003c8.186,0.147,14.726,6.929,14.577,15.114
		C30.703,24.311,24.044,30.852,16.006,30.852z"></path>
      <path  d="M22.491,11.622l-7.915,7.632l-4.953-5.138c-0.221-0.229-0.586-0.235-0.812-0.014
		c-0.228,0.219-0.236,0.581-0.016,0.812l5.354,5.55c0.109,0.112,0.251,0.221,0.414,0.176c0.147,0,0.291-0.06,0.398-0.162
		l8.326-8.033c0.229-0.219,0.235-0.582,0.016-0.81C23.082,11.409,22.72,11.403,22.491,11.622z"></path>
    </g>
  </g>
  <g id="close" data-iconmelon="Simple Line Icons:2f4e8bedaee4fefec7459a2fb2c48d4b">
    <g>
      <path  d="M16.288,0.003l-0.295-0.002c-8.659,0-15.833,7.046-15.99,15.708c-0.16,8.822,6.885,16.128,15.705,16.289
		L16.004,32c8.659,0,15.835-7.048,15.993-15.707c0.078-4.275-1.512-8.323-4.48-11.396C24.549,1.816,20.562,0.083,16.288,0.003z
		 M16.004,30.852l-0.276-0.004C7.542,30.701,1,23.919,1.15,15.731C1.297,7.69,7.955,1.15,15.993,1.15l0.275,0.003
		c3.968,0.068,7.667,1.683,10.421,4.54c2.755,2.855,4.231,6.611,4.16,10.574C30.702,24.311,24.041,30.852,16.004,30.852z"></path>
      <path  d="M21.153,10.236l-5.139,4.953l-4.957-5.139c-0.219-0.229-0.583-0.234-0.811-0.016
		c-0.229,0.219-0.234,0.584-0.015,0.812l4.955,5.141l-5.137,4.952c-0.229,0.222-0.235,0.583-0.017,0.812
		c0.113,0.117,0.263,0.174,0.413,0.174c0.144,0,0.288-0.052,0.399-0.16l5.136-4.953l4.953,5.136
		c0.115,0.118,0.265,0.178,0.415,0.178c0.145,0,0.287-0.054,0.397-0.163c0.229-0.219,0.237-0.583,0.015-0.812l-4.951-5.137
		l5.137-4.953c0.229-0.22,0.234-0.582,0.016-0.812C21.744,10.021,21.38,10.02,21.153,10.236z"></path>
    </g>
  </g>
  <g id="left-arrow" data-iconmelon="Simple Line Icons:17ac1bec96560f90401d78ea150b583c">
    <g>
      <path  d="M16.29,0.002L15.994,0C7.335,0,0.16,7.049,0.005,15.709c-0.082,4.273,1.511,8.318,4.476,11.398
		c2.967,3.076,6.955,4.813,11.229,4.892L16.006,32l0,0c8.659,0,15.833-7.048,15.989-15.707c0.079-4.275-1.511-8.319-4.477-11.397
		C24.551,1.816,20.563,0.082,16.29,0.002z M16.006,30.853l-0.277-0.004c-3.964-0.069-7.666-1.683-10.418-4.539
		c-2.756-2.855-4.23-6.613-4.159-10.578C1.296,7.69,7.953,1.149,15.994,1.149l0.273,0.003c3.968,0.068,7.667,1.683,10.422,4.541
		c2.753,2.854,4.23,6.611,4.159,10.574C30.703,24.311,24.044,30.853,16.006,30.853z"></path>
      <path  d="M23.587,15.563L9.819,15.314l6.714-6.479c0.23-0.22,0.235-0.585,0.017-0.811
		c-0.219-0.229-0.585-0.234-0.812-0.015l-8.126,7.836l0.396,0.413c0.003,0,0.003,0.003,0.003,0.003l7.439,7.716
		c0.112,0.115,0.263,0.174,0.413,0.174c0.143,0,0.287-0.053,0.399-0.162c0.228-0.22,0.232-0.584,0.014-0.811l-6.479-6.718
		l13.769,0.249c0.005,0,0.008,0,0.011,0c0.312,0,0.566-0.25,0.574-0.562C24.156,15.83,23.904,15.568,23.587,15.563z"></path>
    </g>
  </g>
  <g id="bookmark" data-iconmelon="Jolly Icons:d5a3cbc7db7a7817c769959c5ee28edf">
    <g>
      <path fill-rule="evenodd" clip-rule="evenodd" d="M5.688,4.566c0.28,0.383,1.253,0.895,1.647,0.29
		c0.062-0.547-0.387-0.583-0.68-0.775C6.585,3.459,6.77,3.095,6.754,2.529C5.689,2.125,5.617,3.517,5.688,4.566z"></path>
      <path fill-rule="evenodd" clip-rule="evenodd" d="M25.853,4.081c0.438,0.363,2.212,0.76,2.424-0.097
		c-0.023-0.267-0.36-0.222-0.484-0.387C27.068,3.67,26.233,3.676,25.853,4.081z"></path>
      <path fill-rule="evenodd" clip-rule="evenodd" d="M26.434,4.953c-0.069,0.221-0.553,0.029-0.484,0.387
		c0.137,0.381,0.919,0.115,1.356,0.194c0.252-0.168,0.827-0.013,0.776-0.483C27.715,4.629,27.033,5.023,26.434,4.953z"></path>
      <path fill-rule="evenodd" clip-rule="evenodd" d="M25.949,2.529c-0.207,0.213-0.69,0.149-0.679,0.582
		c0.286,0.295,0.842,0.32,1.455,0.291c0.608-0.005,1.278,0.051,1.26-0.582C27.687,2.188,26.684,2.535,25.949,2.529z"></path>
      <path fill-rule="evenodd" clip-rule="evenodd" d="M5.688,30.062c0.132-0.35,0.474-0.901,0.192-1.357
		c-0.948-0.109-0.821,0.859-1.454,1.067c0.17-0.768,0.586-1.289,0.873-1.939c0.23-0.611,0.862-1.221,0.679-1.939
		c-0.538-0.117-0.589,0.252-0.873,0.388c-0.028,0.198-0.262,0.19-0.291,0.388c-0.028,0.087-0.262,0.425-0.289,0.195v-1.067
		c0.44-0.593,0.709-1.359,1.163-1.939c0.182-0.734,0.903-1.408,0.678-2.229c-0.665-0.057-0.895,0.419-1.066,0.775
		c-0.394,0.252-0.462,0.83-0.774,1.164v-1.551c0.357-1,0.923-1.792,1.064-3.007c-0.422-0.066-0.536,0.175-0.678,0.389
		c-0.223,0.08-0.228,0.633-0.485,0.388c0.079-1.893,0.752-3.191,1.067-4.848c-0.366-0.042-0.442,0.206-0.582,0.388
		c-0.223,0.011-0.312,0.648-0.485,0.388c-0.291-0.386,0.089-0.771,0.291-0.97c0.069-0.448,0.196-0.838,0.388-1.163
		c0.109-0.807,0.84-1.471,0.583-2.327c-0.555-0.069-0.782,0.188-0.874,0.582c-0.346,0.219-0.312,0.827-0.678,0.873
		c0.43-0.733,0.288-2.038,0.678-2.812c0.09-0.494,0.34-0.824,0.389-1.357C5.378,8.229,5.824,7.784,5.59,7.377
		C4.825,7.227,4.932,7.945,4.525,8.152C4.357,8.6,4.186,9.041,3.942,9.413C3.93,8.263,3.733,7.295,3.651,6.214
		c0.248,0.01,0.339,0.177,0.485,0.291C4.386,6.514,4.599,6.56,4.718,6.698c0.509-0.057,0.734,0.17,1.261,0.097
		c0.277-0.207,0.55-0.42,0.582-0.872C6.5,4.819,4.767,5.39,4.33,4.663C4.124,4.254,4.283,3.481,4.233,2.917
		C4.44,2.671,4.574,2.354,4.814,2.142c0.714-0.035,1.332,0.025,1.939,0.097c1.768-0.269,4.186,0.113,5.816-0.29
		c1.642-0.053,3.263,0.027,4.848,0.096c2.225,0.098,4.382-0.188,6.592-0.194c0.668-0.172,1.61-0.07,2.424-0.097
		C27,1.609,27.671,1.569,27.694,0.881c0.069-0.295-0.099-0.354-0.097-0.58c-0.333-0.443-1.298-0.254-2.036-0.292
		c-0.593,0.214-1.574,0.041-2.326,0.097c-1.8,0.171-3.59,0.353-5.623,0.291c-1.693,0.116-3.328,0.292-5.139,0.291
		c-1.968,0.488-4.688,0.225-7.077,0.291c-0.3-0.01-0.463,0.118-0.679,0.194c-0.242-0.082-0.52-0.127-0.872-0.097
		C3.14,1.596,2.627,2.313,2.683,3.596c-0.03,0.228-0.337,0.179-0.292,0.484c0.043,0.334-0.037,0.543-0.097,0.775
		c-0.104,3.081,0.147,5.8,0.194,8.726c0.52,4.975,0.262,10.725,0.485,15.996c0.304,0.311,0.317,0.909,0.581,1.26
		c0.364,0.314,0.783,0.574,1.357,0.679c0.395,0.204,1.288,0.321,1.648,0c0.163-0.279,0.271-0.719,0.096-1.066
		C6.498,30.157,5.941,30.261,5.688,30.062z"></path>
      <path fill-rule="evenodd" clip-rule="evenodd" d="M29.537,28.22c-0.104-0.49,0.22-0.555,0.193-0.97
		c-0.021-0.464-0.603-0.367-0.485-0.969c0.104-5.151,0.409-10.484-0.291-15.221V8.346c0.106-0.734,0.432-1.249,0.389-2.132
		c-0.479-0.634-1.175-0.538-2.229-0.485c-0.828,0.142-1.602,0.338-2.521,0.387c-0.095-0.843-0.006-1.868-0.291-2.52
		C23.276,2.78,20.99,3.222,19.26,3.111c-0.768,0.267-1.98,0.087-2.714,0.387c-0.148,0.693-0.374,1.307-0.291,2.23
		c-0.262-0.224-0.632-0.338-1.164-0.291h-2.715C10.97,5.742,9.012,5.499,8.015,6.214C7.72,6.087,7.787,5.601,7.239,5.729
		C6.792,6.414,6.994,7.746,6.754,8.637c0.019,4.584-0.36,9.133,0,13.476c0.06,0.722,0.163,1.416,0.194,2.134
		c0.032,0.734-0.065,1.471-0.098,2.229c-0.058,1.36,0.044,2.709,0,4.071c0.219,0.266,0.703,0.267,0.775,0.678
		c0.553,0.159,1.084,0.338,1.649,0.486c3.749,0.049,7.598,0.141,11.342,0c1.616,0.537,3.769,0.153,5.72,0.194
		c0.12-0.204,0.585-0.063,0.679-0.291c0.299-0.026,0.437-0.21,0.679-0.292c0.444-0.072,0.954-0.08,1.357-0.193
		c0.124-0.233,0.354-0.357,0.291-0.777c0.167-0.22,0.4-0.374,0.388-0.775C29.717,29.074,29.55,28.725,29.537,28.22z M27.598,7.28
		c-0.016,0.695-0.16,1.261-0.193,1.938c-0.484-0.356-0.898-0.783-0.874-1.648C26.545,7.131,27.188,7.323,27.598,7.28z M23.428,4.953
		c0.019,0.664,0.007,1.298-0.097,1.842C23.357,7.112,22.956,7,22.943,7.28c-0.181,0.108-0.205,0.376-0.388,0.484
		c-0.218,0.363-0.397,0.765-0.678,1.066c-0.343,0.822-0.926,1.401-1.261,2.229c-0.363,0.283-0.687,0.606-0.97,0.97
		c-0.264-0.089,0.099-0.34,0.097-0.486c0.168-0.059-0.007-0.459,0.195-0.484c-0.074-0.249-0.235-0.41-0.486-0.484
		c1.199-2.001,2.5-3.9,3.878-5.72C23.414,4.838,23.423,4.894,23.428,4.953z M23.331,12.321c-0.025,0.328-0.152,0.557-0.096,0.97
		c-0.894-0.402-0.168-1.345,0-2.037C23.457,11.421,23.271,11.994,23.331,12.321z M22.266,11.74
		c-0.295-0.093-0.211-0.565-0.388-0.776c0.337-0.858,0.941-1.449,1.261-2.327c0.112-0.016,0.172,0.021,0.192,0.097v2.23
		C22.771,10.662,22.469,11.369,22.266,11.74z M19.453,12.224c-0.049-0.049,0.07-0.123,0.098-0.096
		C19.602,12.178,19.481,12.251,19.453,12.224z M22.362,4.663c-0.232,0.576-0.79,0.826-0.97,1.454
		c-0.452,0.355-0.67,0.946-1.066,1.357c-0.29,0.517-0.612,1.003-0.969,1.454c-0.238,0.539-0.668,0.884-0.872,1.454
		c-0.222-0.134-0.037-0.675-0.098-0.969c0.95-1.603,1.85-3.257,2.908-4.75H22.362z M18.193,4.663c0.172,0.071,0.015,0.176,0,0.291
		C18.021,4.883,18.181,4.777,18.193,4.663z M18.097,6.311c0.409-0.528,0.768-1.108,1.163-1.648h1.066
		c-0.065,0.354-0.367,0.472-0.483,0.776c-0.245,0.174-0.276,0.564-0.583,0.678c-0.279,0.56-0.745,0.936-0.969,1.551
		C18.011,7.431,18.117,6.808,18.097,6.311z M26.143,28.608c-0.451,0.195-0.473,0.819-0.872,1.066h-3.005
		c-3.797,0.717-8.684,0.312-12.7,0.097c-0.672,0.039-1.052,0.369-1.842,0.29c-0.057-0.508,0.171-0.733,0.097-1.259
		c0.403-0.049,0.402-0.503,0.581-0.775c0.282-0.689,0.268-1.673,0.388-2.521c-0.355-3.877-0.455-8.012-0.388-12.312
		c0.077-0.398-0.147-0.497-0.097-0.872c0.011-1.724,0.02-3.445-0.29-4.848V6.407C8.097,6.39,8.105,6.444,8.111,6.504
		C8.601,6.661,9.128,6.78,9.662,6.893c1.724-0.04,3.592-0.391,5.332-0.098c0.543,0.058,0.919-0.051,1.261-0.193
		c0.046,1.827,0.062,3.685,0.194,5.429c-0.052,0.988,0.215,1.659,0.192,2.617c-0.05,0.536,0.057,0.915,0.099,1.357
		c-0.007,0.459-0.017,0.921,0.289,1.066c0.185-0.043,0.586,0.132,0.486-0.193c0.143-0.051,0.243-0.144,0.387-0.195
		c0.281-0.139,0.374-0.465,0.583-0.678c0.346-0.494,0.576-1.103,0.872-1.648c0.222-0.167,0.489-0.285,0.679-0.484
		c0.295-0.091,0.304-0.472,0.679-0.484c0.451,0.583,1.063,1.004,1.454,1.647c0.687,0.284,0.965,0.973,1.841,1.067
		c0.664-0.305,0.293-1.647,0.389-2.521c-0.076-0.4,0.148-0.497,0.097-0.873V8.346c0.098-0.471-0.166-0.927,0-1.163
		c0.185,0.171,0.641,0.07,0.97,0.097c-0.243,1.987,0.829,2.661,1.939,3.296c0.523,5.13,0.602,10.708,0.775,16.19
		c-0.022,0.301-0.345,0.303-0.582,0.389c-0.156,0.167-0.362,0.284-0.582,0.387C26.797,27.969,26.282,28.101,26.143,28.608z
		 M28.373,29.578h-1.551c0.32-0.486,0.827-0.788,1.26-1.164c0.113-0.016,0.173,0.022,0.194,0.097
		C28.201,28.974,28.428,29.136,28.373,29.578z"></path>
    </g>
  </g>
</svg>
