<svg id="svg-source" height="0" version="1.1" 
  xmlns="http://www.w3.org/2000/svg" style="position:absolute; margin-left: -100%" 
  xmlns:xlink="http://www.w3.org/1999/xlink">
  <g id="computer" data-iconmelon="Streamline Icon Set:348456d2852a6907b5762245a631801c">
    <g id="Expanded">
      <g>
        <g>
          <path  d="M16.667,31.333H3.333C1.496,31.333,0,29.838,0,28v-4c0-0.368,0.299-0.667,0.667-0.667
				c0.368,0,0.667,0.299,0.667,0.667c0,1.103,0.897,2,2,2h13.333c1.103,0,2-0.897,2-2c0-0.368,0.299-0.667,0.666-0.667
				C19.701,23.333,20,23.632,20,24v4C20,29.838,18.505,31.333,16.667,31.333z M1.333,26.665V28c0,1.103,0.897,2,2,2h13.333
				c1.103,0,2-0.897,2-2v-1.335c-0.558,0.419-1.25,0.668-2,0.668H3.333C2.583,27.333,1.891,27.084,1.333,26.665z"></path>
        </g>
        <g>
          <path  d="M26.667,31.333c-0.925,0-4.029-0.086-5.139-1.195c-0.125-0.125-0.195-0.294-0.195-0.471V2.334
				c0-0.177,0.07-0.347,0.195-0.472c1.109-1.109,4.214-1.195,5.139-1.195c0.924,0,4.028,0.086,5.138,1.195
				C31.93,1.987,32,2.157,32,2.334v27.333c0,0.177-0.07,0.346-0.195,0.471C30.695,31.247,27.591,31.333,26.667,31.333z
				 M22.667,29.34c0.594,0.348,2.043,0.66,4,0.66s3.406-0.312,4-0.66V2.66c-0.594-0.348-2.043-0.66-4-0.66s-3.406,0.312-4,0.66
				V29.34z"></path>
        </g>
        <g>
          <path  d="M18.8,24.399l-2.88-3.84c-0.576-0.768-1.493-1.227-2.453-1.227H6.533c-0.96,0-1.876,0.459-2.453,1.227
				l-2.88,3.84l-1.066-0.799l2.88-3.84C3.84,18.657,5.156,18,6.533,18h6.934c1.377,0,2.693,0.657,3.519,1.761l2.881,3.84
				L18.8,24.399z"></path>
        </g>
        <g>
          <path  d="M26.667,11c-1.838,0-3.334-1.495-3.334-3.333s1.496-3.333,3.334-3.333S30,5.829,30,7.667
				S28.505,11,26.667,11z M26.667,5.667c-1.104,0-2,0.897-2,2s0.896,2,2,2c1.103,0,2-0.897,2-2S27.77,5.667,26.667,5.667z"></path>
        </g>
        <g>
          <path  d="M24.667,11.667c-0.737,0-1.334,0.597-1.334,1.333c0,0.737,0.597,1.334,1.334,1.334
				C25.403,14.334,26,13.737,26,13C26,12.264,25.403,11.667,24.667,11.667L24.667,11.667z"></path>
        </g>
        <g>
          <path  d="M28.667,11.667c-0.737,0-1.334,0.597-1.334,1.333c0,0.737,0.597,1.334,1.334,1.334
				C29.403,14.334,30,13.737,30,13C30,12.264,29.403,11.667,28.667,11.667L28.667,11.667z"></path>
        </g>
      </g>
    </g>
  </g>
  <g id="calendar" data-iconmelon="Line icon set:8a13eab34e9d15f81a8b9fc7cd4fb37d">
    <g id="Calendar">
      <g>
        <path  d="M29,2c-0.553,0-1,0.447-1,1s0.447,1,1,1c0.552,0,1,0.448,1,1v5H2V5c0-0.552,0.448-1,1-1
			c0.553,0,1-0.447,1-1S3.553,2,3,2C1.346,2,0,3.346,0,5v24c0,1.654,1.346,3,3,3h26c1.654,0,3-1.346,3-3V5C32,3.346,30.654,2,29,2z
			 M30,29c0,0.552-0.448,1-1,1H3c-0.552,0-1-0.448-1-1V12h28V29z M6,6c0.553,0,1-0.447,1-1V1c0-0.553-0.447-1-1-1S5,0.447,5,1v4
			C5,5.553,5.447,6,6,6z M10,6c0.553,0,1-0.447,1-1V1c0-0.553-0.447-1-1-1S9,0.447,9,1v4C9,5.553,9.447,6,10,6z M14,6
			c0.553,0,1-0.447,1-1V1c0-0.553-0.447-1-1-1s-1,0.447-1,1v4C13,5.553,13.447,6,14,6z M18,6c0.553,0,1-0.447,1-1V1
			c0-0.553-0.447-1-1-1s-1,0.447-1,1v4C17,5.553,17.447,6,18,6z M22,6c0.553,0,1-0.447,1-1V1c0-0.553-0.447-1-1-1s-1,0.447-1,1v4
			C21,5.553,21.447,6,22,6z M26,6c0.553,0,1-0.447,1-1V1c0-0.553-0.447-1-1-1s-1,0.447-1,1v4C25,5.553,25.447,6,26,6z M21.5,25
			c-0.827,0-1.5-0.673-1.5-1.5c0-0.553-0.447-1-1-1s-1,0.447-1,1c0,1.93,1.57,3.5,3.5,3.5s3.5-1.57,3.5-3.5
			c0-0.979-0.403-1.864-1.053-2.5C24.597,20.364,25,19.479,25,18.5c0-1.93-1.57-3.5-3.5-3.5S18,16.57,18,18.5c0,0.553,0.447,1,1,1
			s1-0.447,1-1c0-0.827,0.673-1.5,1.5-1.5s1.5,0.673,1.5,1.5S22.327,20,21.5,20c-0.553,0-1,0.447-1,1s0.447,1,1,1
			c0.827,0,1.5,0.673,1.5,1.5S22.327,25,21.5,25z M7,26c0,0.553,0.447,1,1,1h5c0.553,0,1-0.447,1-1s-0.447-1-1-1H9.531
			c0.415-0.534,1-1.146,1.483-1.652C12.482,21.811,14,20.221,14,18.5c0-1.93-1.57-3.5-3.5-3.5S7,16.57,7,18.5c0,0.553,0.447,1,1,1
			s1-0.447,1-1c0-0.827,0.673-1.5,1.5-1.5s1.5,0.673,1.5,1.5c0,0.919-1.349,2.331-2.432,3.466C8.19,23.408,7,24.654,7,26z"></path>
      </g>
    </g>
  </g>
  <g id="linkedin" data-iconmelon="Flat Social Icons:01c61d24a0a5319e0d4efae034e4824a">
    <path d="M16,0C7.163,0,0,7.164,0,16s7.163,16,16,16c8.838,0,16-7.164,16-16S24.838,0,16,0z M11.522,22.691H8.403
	v-9.98h3.119V22.691z M9.883,11.463H9.86c-1.129,0-1.86-0.764-1.86-1.73C8,8.748,8.754,8,9.905,8c1.15,0,1.857,0.746,1.88,1.73
	C11.785,10.697,11.056,11.463,9.883,11.463z M24,22.691h-3.537v-5.164c0-1.353-0.552-2.275-1.77-2.275
	c-0.93,0-1.446,0.623-1.688,1.224c-0.09,0.216-0.075,0.515-0.075,0.816v5.399h-3.504c0,0,0.046-9.148,0-9.98h3.504v1.566
	c0.207-0.685,1.326-1.662,3.112-1.662c2.216,0,3.958,1.436,3.958,4.527V22.691z"></path>
  </g>
  <g id="arrow-right" data-iconmelon="Icon Set:66038db8e90c169c2dc68347f4e2c0e9">
    <path d="M25.723,15.341L11.659,1.278c-0.371-0.371-0.971-0.371-1.34,0L6.97,4.626
        c-0.37,0.369-0.37,0.969,0,1.34l10.045,10.046L6.97,26.059c-0.37,0.369-0.37,0.97,0,1.339l3.349,3.349
        c0.37,0.369,0.97,0.369,1.34,0L22.37,20.033c0.001-0.001,0.003-0.001,0.004-0.002l3.349-3.35
        C26.093,16.312,26.093,15.713,25.723,15.341z"></path>
  </g>
  <g id="arrow-top" data-iconmelon="Icon Set:d4aa6ecb176864a7e490ac615ef8e212">
    <path d="M30.745,21.034L20.031,10.322c0,0,0-0.001-0.001-0.002l-3.35-3.349
        c-0.369-0.37-0.969-0.37-1.34,0L1.278,21.034c-0.371,0.371-0.371,0.971,0,1.34l3.348,3.349c0.369,0.37,0.969,0.37,1.34,0
        l10.046-10.045l10.046,10.045c0.369,0.37,0.97,0.37,1.339,0l3.349-3.349C31.114,22.004,31.114,21.404,30.745,21.034z"></path>
  </g>
  <g id="arrow-left" data-iconmelon="Icon Set:33f568b5bbbd96e08f84a202e3245bc3">
    <path d="M14.677,16.011L24.723,5.964c0.37-0.369,0.37-0.97,0-1.339l-3.349-3.349
        c-0.37-0.369-0.97-0.369-1.34,0L9.321,11.99c0,0-0.001,0.001-0.002,0.001l-3.349,3.35c-0.37,0.369-0.37,0.968,0,1.34
        l14.063,14.062c0.371,0.371,0.971,0.371,1.34,0l3.349-3.348c0.37-0.369,0.37-0.969,0-1.34L14.677,16.011z"></path>
  </g>
  <g id="arrow-bottom" data-iconmelon="Icon Set:4f1f75449c6d8ae60061d79b867dc04d">
    <path d="M30.744,11.319l-3.348-3.349c-0.369-0.37-0.969-0.37-1.34,0L16.012,18.017
        L5.965,7.971c-0.369-0.37-0.969-0.37-1.338,0l-3.349,3.349c-0.37,0.37-0.37,0.97,0,1.34l14.064,14.063
        c0.369,0.37,0.969,0.37,1.34,0l14.062-14.063C31.115,12.289,31.115,11.689,30.744,11.319z"></path>
  </g>
  <g id="education-1" data-iconmelon="Icon Set:497fddb64cb64b7adc5307434ead8514">
    <path d="M4.042,17.975v2.084c1.538-0.51,3.446-0.949,5.488-0.949
        c1.678,0,2.777,0.305,3.512,0.699v-2.189c-0.871-0.285-1.979-0.482-3.4-0.49C7.349,17.113,5.495,17.484,4.042,17.975z
         M4.042,10.719v2.084c1.538-0.509,3.446-0.949,5.488-0.949c1.678,0,2.777,0.304,3.512,0.699v-2.189
        c-0.871-0.286-1.979-0.484-3.4-0.494C7.349,9.854,5.495,10.229,4.042,10.719z M4.042,14.411v2.084
        c1.538-0.51,3.446-0.949,5.488-0.949c1.678,0,2.777,0.304,3.512,0.699v-2.189c-0.871-0.286-1.979-0.484-3.4-0.494
        C7.349,13.545,5.495,13.919,4.042,14.411z M19.045,10.179v0.506v1.683v1.812v1.505v0.499c0.734-0.396,1.834-0.699,3.512-0.699
        c2.043,0,3.951,0.439,5.488,0.949v-0.749v-1.15v-1.915v-1.934v-0.151c-1.453-0.49-3.307-0.994-5.6-0.979
        C21.025,9.565,19.916,9.893,19.045,10.179z M19.045,17.619v2.189c0.734-0.395,1.834-0.699,3.512-0.699
        c2.043,0,3.951,0.439,5.488,0.949v-2.084c-1.453-0.49-3.307-0.861-5.6-0.846C21.025,17.137,19.916,17.334,19.045,17.619z
         M29.502,6.428c-1.577-0.743-3.905-1.451-7.057-1.429c-5.503,0.038-6.404,2.875-6.404,2.875s-0.898-2.837-6.4-2.875
        c-3.145-0.022-5.47,0.684-7.047,1.425c-2.195,1.165-2.516,2.602-2.552,4.225v12.576c0,0.018,0.004,0.031,0.004,0.049
        c0,2.432-0.025,3.534,4.092,3.008c0.018-0.003,0.035-0.005,0.052-0.007c0.267-0.035,0.549-0.076,0.851-0.124
        c0.083-0.014,0.145,0.002,0.218,0.003c1.01-0.097,2.027-0.151,2.95-0.151c1.944,0,3.688,0.24,4.931,0.622
        c0.028,0.007,0.057,0.014,0.083,0.021c0.488,0.125,0.932,0.35,1.75,0.35h2.144c0.818,0,1.26-0.225,1.748-0.35
        c0.023-0.006,0.049-0.013,0.074-0.019c1.243-0.383,2.99-0.624,4.938-0.624c0.89,0,1.866,0.052,2.839,0.143
        c0.1-0.012,0.207-0.014,0.329,0.006c0.296,0.047,0.572,0.087,0.834,0.121c0.028,0.004,0.056,0.008,0.083,0.011
        c3.213,0.409,3.894-0.182,4.038-1.622V9.892C31.861,8.579,31.342,7.408,29.502,6.428z M14.997,12.19L14.997,12.19v11.193
        c-0.894-0.739-2.502-1.511-5.355-1.531C6.558,21.83,4.26,22.51,2.684,23.237V8.928C4.36,8.245,6.834,7.482,9.53,7.482
        c2.835,0,4.04,0.859,4.559,1.58c0.002,0.002,0.003,0.002,0.005,0.005c0.083,0.111,0.195,0.261,0.313,0.442
        c0.016,0.025,0.03,0.048,0.046,0.074c0.085,0.136,0.171,0.289,0.251,0.462c0.013,0.029,0.025,0.06,0.038,0.09
        c0.079,0.185,0.151,0.386,0.205,0.612c0.005,0.023,0.008,0.048,0.013,0.071c0.053,0.244,0.088,0.508,0.088,0.8
        C15.049,11.842,15.028,12.027,14.997,12.19z M29.33,23.204c-1.573-0.714-3.847-1.373-6.885-1.353
        c-2.95,0.021-4.57,0.845-5.445,1.605V11.516h0.043c0.032-1.18,0.573-1.943,0.878-2.353c0.478-0.738,1.668-1.681,4.636-1.681
        c2.657,0,5.1,0.741,6.773,1.416V23.204z"></path>
  </g>
  <g id="check" data-iconmelon="Simple Line Icons:62e3519b8d1506453144dd389ae63264">
    <g>
      <path  d="M16.29,0.003l-0.296-0.002c-8.659,0-15.832,7.046-15.991,15.708c-0.161,8.822,6.884,16.128,15.707,16.289
		L16.006,32c8.659,0,15.833-7.048,15.991-15.707C32.156,7.471,25.111,0.165,16.29,0.003z M16.006,30.852l-0.276-0.004
		C7.543,30.701,1.002,23.919,1.152,15.731C1.297,7.69,7.958,1.15,15.994,1.15l0.277,0.003c8.186,0.147,14.726,6.929,14.577,15.114
		C30.703,24.311,24.044,30.852,16.006,30.852z"></path>
      <path  d="M22.491,11.622l-7.915,7.632l-4.953-5.138c-0.221-0.229-0.586-0.235-0.812-0.014
		c-0.228,0.219-0.236,0.581-0.016,0.812l5.354,5.55c0.109,0.112,0.251,0.221,0.414,0.176c0.147,0,0.291-0.06,0.398-0.162
		l8.326-8.033c0.229-0.219,0.235-0.582,0.016-0.81C23.082,11.409,22.72,11.403,22.491,11.622z"></path>
    </g>
  </g>
  <g id="close" data-iconmelon="Simple Line Icons:2f4e8bedaee4fefec7459a2fb2c48d4b">
    <g>
      <path  d="M16.288,0.003l-0.295-0.002c-8.659,0-15.833,7.046-15.99,15.708c-0.16,8.822,6.885,16.128,15.705,16.289
		L16.004,32c8.659,0,15.835-7.048,15.993-15.707c0.078-4.275-1.512-8.323-4.48-11.396C24.549,1.816,20.562,0.083,16.288,0.003z
		 M16.004,30.852l-0.276-0.004C7.542,30.701,1,23.919,1.15,15.731C1.297,7.69,7.955,1.15,15.993,1.15l0.275,0.003
		c3.968,0.068,7.667,1.683,10.421,4.54c2.755,2.855,4.231,6.611,4.16,10.574C30.702,24.311,24.041,30.852,16.004,30.852z"></path>
      <path  d="M21.153,10.236l-5.139,4.953l-4.957-5.139c-0.219-0.229-0.583-0.234-0.811-0.016
		c-0.229,0.219-0.234,0.584-0.015,0.812l4.955,5.141l-5.137,4.952c-0.229,0.222-0.235,0.583-0.017,0.812
		c0.113,0.117,0.263,0.174,0.413,0.174c0.144,0,0.288-0.052,0.399-0.16l5.136-4.953l4.953,5.136
		c0.115,0.118,0.265,0.178,0.415,0.178c0.145,0,0.287-0.054,0.397-0.163c0.229-0.219,0.237-0.583,0.015-0.812l-4.951-5.137
		l5.137-4.953c0.229-0.22,0.234-0.582,0.016-0.812C21.744,10.021,21.38,10.02,21.153,10.236z"></path>
    </g>
  </g>
  <g id="left-arrow" data-iconmelon="Simple Line Icons:17ac1bec96560f90401d78ea150b583c">
    <g>
      <path  d="M16.29,0.002L15.994,0C7.335,0,0.16,7.049,0.005,15.709c-0.082,4.273,1.511,8.318,4.476,11.398
		c2.967,3.076,6.955,4.813,11.229,4.892L16.006,32l0,0c8.659,0,15.833-7.048,15.989-15.707c0.079-4.275-1.511-8.319-4.477-11.397
		C24.551,1.816,20.563,0.082,16.29,0.002z M16.006,30.853l-0.277-0.004c-3.964-0.069-7.666-1.683-10.418-4.539
		c-2.756-2.855-4.23-6.613-4.159-10.578C1.296,7.69,7.953,1.149,15.994,1.149l0.273,0.003c3.968,0.068,7.667,1.683,10.422,4.541
		c2.753,2.854,4.23,6.611,4.159,10.574C30.703,24.311,24.044,30.853,16.006,30.853z"></path>
      <path  d="M23.587,15.563L9.819,15.314l6.714-6.479c0.23-0.22,0.235-0.585,0.017-0.811
		c-0.219-0.229-0.585-0.234-0.812-0.015l-8.126,7.836l0.396,0.413c0.003,0,0.003,0.003,0.003,0.003l7.439,7.716
		c0.112,0.115,0.263,0.174,0.413,0.174c0.143,0,0.287-0.053,0.399-0.162c0.228-0.22,0.232-0.584,0.014-0.811l-6.479-6.718
		l13.769,0.249c0.005,0,0.008,0,0.011,0c0.312,0,0.566-0.25,0.574-0.562C24.156,15.83,23.904,15.568,23.587,15.563z"></path>
    </g>
  </g>
  <g id="bookmark" data-iconmelon="Jolly Icons:d5a3cbc7db7a7817c769959c5ee28edf">
    <g>
      <path fill-rule="evenodd" clip-rule="evenodd" d="M5.688,4.566c0.28,0.383,1.253,0.895,1.647,0.29
		c0.062-0.547-0.387-0.583-0.68-0.775C6.585,3.459,6.77,3.095,6.754,2.529C5.689,2.125,5.617,3.517,5.688,4.566z"></path>
      <path fill-rule="evenodd" clip-rule="evenodd" d="M25.853,4.081c0.438,0.363,2.212,0.76,2.424-0.097
		c-0.023-0.267-0.36-0.222-0.484-0.387C27.068,3.67,26.233,3.676,25.853,4.081z"></path>
      <path fill-rule="evenodd" clip-rule="evenodd" d="M26.434,4.953c-0.069,0.221-0.553,0.029-0.484,0.387
		c0.137,0.381,0.919,0.115,1.356,0.194c0.252-0.168,0.827-0.013,0.776-0.483C27.715,4.629,27.033,5.023,26.434,4.953z"></path>
      <path fill-rule="evenodd" clip-rule="evenodd" d="M25.949,2.529c-0.207,0.213-0.69,0.149-0.679,0.582
		c0.286,0.295,0.842,0.32,1.455,0.291c0.608-0.005,1.278,0.051,1.26-0.582C27.687,2.188,26.684,2.535,25.949,2.529z"></path>
      <path fill-rule="evenodd" clip-rule="evenodd" d="M5.688,30.062c0.132-0.35,0.474-0.901,0.192-1.357
		c-0.948-0.109-0.821,0.859-1.454,1.067c0.17-0.768,0.586-1.289,0.873-1.939c0.23-0.611,0.862-1.221,0.679-1.939
		c-0.538-0.117-0.589,0.252-0.873,0.388c-0.028,0.198-0.262,0.19-0.291,0.388c-0.028,0.087-0.262,0.425-0.289,0.195v-1.067
		c0.44-0.593,0.709-1.359,1.163-1.939c0.182-0.734,0.903-1.408,0.678-2.229c-0.665-0.057-0.895,0.419-1.066,0.775
		c-0.394,0.252-0.462,0.83-0.774,1.164v-1.551c0.357-1,0.923-1.792,1.064-3.007c-0.422-0.066-0.536,0.175-0.678,0.389
		c-0.223,0.08-0.228,0.633-0.485,0.388c0.079-1.893,0.752-3.191,1.067-4.848c-0.366-0.042-0.442,0.206-0.582,0.388
		c-0.223,0.011-0.312,0.648-0.485,0.388c-0.291-0.386,0.089-0.771,0.291-0.97c0.069-0.448,0.196-0.838,0.388-1.163
		c0.109-0.807,0.84-1.471,0.583-2.327c-0.555-0.069-0.782,0.188-0.874,0.582c-0.346,0.219-0.312,0.827-0.678,0.873
		c0.43-0.733,0.288-2.038,0.678-2.812c0.09-0.494,0.34-0.824,0.389-1.357C5.378,8.229,5.824,7.784,5.59,7.377
		C4.825,7.227,4.932,7.945,4.525,8.152C4.357,8.6,4.186,9.041,3.942,9.413C3.93,8.263,3.733,7.295,3.651,6.214
		c0.248,0.01,0.339,0.177,0.485,0.291C4.386,6.514,4.599,6.56,4.718,6.698c0.509-0.057,0.734,0.17,1.261,0.097
		c0.277-0.207,0.55-0.42,0.582-0.872C6.5,4.819,4.767,5.39,4.33,4.663C4.124,4.254,4.283,3.481,4.233,2.917
		C4.44,2.671,4.574,2.354,4.814,2.142c0.714-0.035,1.332,0.025,1.939,0.097c1.768-0.269,4.186,0.113,5.816-0.29
		c1.642-0.053,3.263,0.027,4.848,0.096c2.225,0.098,4.382-0.188,6.592-0.194c0.668-0.172,1.61-0.07,2.424-0.097
		C27,1.609,27.671,1.569,27.694,0.881c0.069-0.295-0.099-0.354-0.097-0.58c-0.333-0.443-1.298-0.254-2.036-0.292
		c-0.593,0.214-1.574,0.041-2.326,0.097c-1.8,0.171-3.59,0.353-5.623,0.291c-1.693,0.116-3.328,0.292-5.139,0.291
		c-1.968,0.488-4.688,0.225-7.077,0.291c-0.3-0.01-0.463,0.118-0.679,0.194c-0.242-0.082-0.52-0.127-0.872-0.097
		C3.14,1.596,2.627,2.313,2.683,3.596c-0.03,0.228-0.337,0.179-0.292,0.484c0.043,0.334-0.037,0.543-0.097,0.775
		c-0.104,3.081,0.147,5.8,0.194,8.726c0.52,4.975,0.262,10.725,0.485,15.996c0.304,0.311,0.317,0.909,0.581,1.26
		c0.364,0.314,0.783,0.574,1.357,0.679c0.395,0.204,1.288,0.321,1.648,0c0.163-0.279,0.271-0.719,0.096-1.066
		C6.498,30.157,5.941,30.261,5.688,30.062z"></path>
      <path fill-rule="evenodd" clip-rule="evenodd" d="M29.537,28.22c-0.104-0.49,0.22-0.555,0.193-0.97
		c-0.021-0.464-0.603-0.367-0.485-0.969c0.104-5.151,0.409-10.484-0.291-15.221V8.346c0.106-0.734,0.432-1.249,0.389-2.132
		c-0.479-0.634-1.175-0.538-2.229-0.485c-0.828,0.142-1.602,0.338-2.521,0.387c-0.095-0.843-0.006-1.868-0.291-2.52
		C23.276,2.78,20.99,3.222,19.26,3.111c-0.768,0.267-1.98,0.087-2.714,0.387c-0.148,0.693-0.374,1.307-0.291,2.23
		c-0.262-0.224-0.632-0.338-1.164-0.291h-2.715C10.97,5.742,9.012,5.499,8.015,6.214C7.72,6.087,7.787,5.601,7.239,5.729
		C6.792,6.414,6.994,7.746,6.754,8.637c0.019,4.584-0.36,9.133,0,13.476c0.06,0.722,0.163,1.416,0.194,2.134
		c0.032,0.734-0.065,1.471-0.098,2.229c-0.058,1.36,0.044,2.709,0,4.071c0.219,0.266,0.703,0.267,0.775,0.678
		c0.553,0.159,1.084,0.338,1.649,0.486c3.749,0.049,7.598,0.141,11.342,0c1.616,0.537,3.769,0.153,5.72,0.194
		c0.12-0.204,0.585-0.063,0.679-0.291c0.299-0.026,0.437-0.21,0.679-0.292c0.444-0.072,0.954-0.08,1.357-0.193
		c0.124-0.233,0.354-0.357,0.291-0.777c0.167-0.22,0.4-0.374,0.388-0.775C29.717,29.074,29.55,28.725,29.537,28.22z M27.598,7.28
		c-0.016,0.695-0.16,1.261-0.193,1.938c-0.484-0.356-0.898-0.783-0.874-1.648C26.545,7.131,27.188,7.323,27.598,7.28z M23.428,4.953
		c0.019,0.664,0.007,1.298-0.097,1.842C23.357,7.112,22.956,7,22.943,7.28c-0.181,0.108-0.205,0.376-0.388,0.484
		c-0.218,0.363-0.397,0.765-0.678,1.066c-0.343,0.822-0.926,1.401-1.261,2.229c-0.363,0.283-0.687,0.606-0.97,0.97
		c-0.264-0.089,0.099-0.34,0.097-0.486c0.168-0.059-0.007-0.459,0.195-0.484c-0.074-0.249-0.235-0.41-0.486-0.484
		c1.199-2.001,2.5-3.9,3.878-5.72C23.414,4.838,23.423,4.894,23.428,4.953z M23.331,12.321c-0.025,0.328-0.152,0.557-0.096,0.97
		c-0.894-0.402-0.168-1.345,0-2.037C23.457,11.421,23.271,11.994,23.331,12.321z M22.266,11.74
		c-0.295-0.093-0.211-0.565-0.388-0.776c0.337-0.858,0.941-1.449,1.261-2.327c0.112-0.016,0.172,0.021,0.192,0.097v2.23
		C22.771,10.662,22.469,11.369,22.266,11.74z M19.453,12.224c-0.049-0.049,0.07-0.123,0.098-0.096
		C19.602,12.178,19.481,12.251,19.453,12.224z M22.362,4.663c-0.232,0.576-0.79,0.826-0.97,1.454
		c-0.452,0.355-0.67,0.946-1.066,1.357c-0.29,0.517-0.612,1.003-0.969,1.454c-0.238,0.539-0.668,0.884-0.872,1.454
		c-0.222-0.134-0.037-0.675-0.098-0.969c0.95-1.603,1.85-3.257,2.908-4.75H22.362z M18.193,4.663c0.172,0.071,0.015,0.176,0,0.291
		C18.021,4.883,18.181,4.777,18.193,4.663z M18.097,6.311c0.409-0.528,0.768-1.108,1.163-1.648h1.066
		c-0.065,0.354-0.367,0.472-0.483,0.776c-0.245,0.174-0.276,0.564-0.583,0.678c-0.279,0.56-0.745,0.936-0.969,1.551
		C18.011,7.431,18.117,6.808,18.097,6.311z M26.143,28.608c-0.451,0.195-0.473,0.819-0.872,1.066h-3.005
		c-3.797,0.717-8.684,0.312-12.7,0.097c-0.672,0.039-1.052,0.369-1.842,0.29c-0.057-0.508,0.171-0.733,0.097-1.259
		c0.403-0.049,0.402-0.503,0.581-0.775c0.282-0.689,0.268-1.673,0.388-2.521c-0.355-3.877-0.455-8.012-0.388-12.312
		c0.077-0.398-0.147-0.497-0.097-0.872c0.011-1.724,0.02-3.445-0.29-4.848V6.407C8.097,6.39,8.105,6.444,8.111,6.504
		C8.601,6.661,9.128,6.78,9.662,6.893c1.724-0.04,3.592-0.391,5.332-0.098c0.543,0.058,0.919-0.051,1.261-0.193
		c0.046,1.827,0.062,3.685,0.194,5.429c-0.052,0.988,0.215,1.659,0.192,2.617c-0.05,0.536,0.057,0.915,0.099,1.357
		c-0.007,0.459-0.017,0.921,0.289,1.066c0.185-0.043,0.586,0.132,0.486-0.193c0.143-0.051,0.243-0.144,0.387-0.195
		c0.281-0.139,0.374-0.465,0.583-0.678c0.346-0.494,0.576-1.103,0.872-1.648c0.222-0.167,0.489-0.285,0.679-0.484
		c0.295-0.091,0.304-0.472,0.679-0.484c0.451,0.583,1.063,1.004,1.454,1.647c0.687,0.284,0.965,0.973,1.841,1.067
		c0.664-0.305,0.293-1.647,0.389-2.521c-0.076-0.4,0.148-0.497,0.097-0.873V8.346c0.098-0.471-0.166-0.927,0-1.163
		c0.185,0.171,0.641,0.07,0.97,0.097c-0.243,1.987,0.829,2.661,1.939,3.296c0.523,5.13,0.602,10.708,0.775,16.19
		c-0.022,0.301-0.345,0.303-0.582,0.389c-0.156,0.167-0.362,0.284-0.582,0.387C26.797,27.969,26.282,28.101,26.143,28.608z
		 M28.373,29.578h-1.551c0.32-0.486,0.827-0.788,1.26-1.164c0.113-0.016,0.173,0.022,0.194,0.097
		C28.201,28.974,28.428,29.136,28.373,29.578z"></path>
    </g>
  </g>
</svg>

<svg id="svg-source" height="0" version="1.1" 
  xmlns="http://www.w3.org/2000/svg" style="position:absolute; margin-left: -100%" 
  xmlns:xlink="http://www.w3.org/1999/xlink">
  <g id="map" data-iconmelon="Jolly Icons:32f7fb55c65f36624fc5d78182b44f53">
    <g>
      <path fill-rule="evenodd" clip-rule="evenodd" d="M4.94,18.76c0.521-0.178,0.936-0.463,0.954-1.145
		c-0.571-0.484-1.436,0.068-1.432,0.764C4.653,18.475,4.614,18.801,4.94,18.76z"></path>
      <path fill-rule="evenodd" clip-rule="evenodd" d="M7.517,16.566c0.235-0.369,0.657-0.551,0.668-1.146
		c-0.17-0.084-0.243-0.266-0.572-0.19c-0.516,0.44-1.3,0.609-1.337,1.527C6.648,17.196,7.202,16.752,7.517,16.566z"></path>
      <path fill-rule="evenodd" clip-rule="evenodd" d="M10.38,13.99c0.449-0.124,0.636-0.51,0.763-0.955
		c-0.154-0.133-0.234-0.338-0.572-0.287c-0.595,0.378-1.966,0.829-1.337,1.814C9.845,14.601,10.118,14.3,10.38,13.99z"></path>
      <path fill-rule="evenodd" clip-rule="evenodd" d="M0.36,26.872c0.055,0.741-0.115,1.706,0.097,2.291
		c0.024,0.196,0.254,0.191,0.381,0.286c0.236-0.124,0.462,0.214,0.477,0c0.218,0.26,0.172,0.783,0.764,0.669
		c0.605,0.097,0.73-0.288,1.05-0.479c0.296-0.214,0.549-0.467,0.764-0.762c0.608-0.41,1.062-0.974,1.621-1.432
		c0.537-0.481,1.062-0.975,1.624-1.431c0.287-0.222,0.593-0.425,0.858-0.668c0.387-0.121,0.554-0.466,0.954-0.573
		c1.319,0.652,2.426,1.518,3.722,2.195c0.613,0.372,1.233,0.739,1.717,1.241c0.372,0.105,0.691,0.263,0.954,0.476
		c0.281-0.024,0.294,0.217,0.574,0.192c-0.044,0.298,0.203,0.304,0.475,0.286c0.732-0.288,1.284-0.753,1.815-1.241
		c0.603-0.414,1.21-0.824,1.718-1.336c0.744-0.273,1.086-0.95,1.812-1.24c0.214-0.297,0.643-0.376,0.859-0.669
		c0.335-0.173,0.553-0.463,0.954-0.572c1.289,0.842,2.185,2.077,3.341,3.054c0.33,0.178,0.439,0.575,0.857,0.668
		c0.259,0.282,0.441,0.641,0.859,0.764c0.312,0.228,0.32,0.761,0.858,0.764c0.359,0.181,0.438,0.645,1.05,0.573
		c0.371-0.18,0.484-0.485,0.572-0.955c0.093-0.491-0.069-1.031,0-1.527c0.154-0.355,0.311-0.708,0.383-1.146
		c0.508-4.231,0.162-9.315,0.382-13.837c0.172-0.642,0.09-1.508,0.096-2.29c0.003-0.804,0.115-1.602,0-2.195
		c-0.123-0.452-0.436-0.71-0.764-0.954c-0.38-0.225-0.634-0.575-1.051-0.764c-0.198-0.262-0.696-0.416-0.858-0.572
		c-0.081-0.078-0.081-0.028-0.191-0.095c-0.377-0.229-0.713-0.527-1.145-0.668c-0.601-0.577-1.344-1.009-2.004-1.527
		c-0.39-0.183-0.746-0.399-1.049-0.667c-0.4-0.207-0.511-0.699-1.051-0.765c-0.006-0.058-0.015-0.112-0.095-0.095
		c-0.13,0.03-0.184,0.136-0.382,0.095c-0.718,0.429-1.226,1.065-1.909,1.527c-0.834,0.534-1.667,1.068-2.48,1.623
		c-0.431,0.239-0.748,0.589-1.241,0.764c-0.114,0.235-0.328,0.373-0.573,0.477c-0.203,0.097-0.354,0.493-0.572,0.286
		c-1.198-0.519-2.154-1.281-3.244-1.908c-0.427-0.433-1.15-0.567-1.623-0.955c-0.685-0.206-1.146-0.636-2.004-0.669
		C9.102,3.072,8.837,3.382,8.28,3.396c-2.406,1.601-5.331,2.686-7.823,4.2c-0.13,0.347-0.124,0.831-0.383,1.049
		c-0.128,1.497-0.064,3.06,0,4.581C0.254,17.519-0.246,22.433,0.36,26.872z M2.078,28.59c-0.05-0.05,0.069-0.122,0.096-0.095
		C2.221,28.544,2.104,28.616,2.078,28.59z M2.173,9.027C2.316,8.916,2.564,8.908,2.651,8.74C3.06,8.609,3.279,8.287,3.699,8.168
		c0.688-0.396,1.281-0.883,2.005-1.24c0.625-0.457,1.476-0.688,2.1-1.146c0.481-0.058,0.593-0.488,1.146-0.477
		c0.312-0.197,0.6-0.419,0.954-0.572c0.967,0.718,2.067,1.304,3.054,2.003c0.486,0.372,1.078,0.64,1.527,1.05
		c0.562,0.264,0.885,0.769,1.526,0.954c0.909-0.109,1.521-0.514,2.099-0.954c0.601-0.419,1.247-0.789,1.814-1.24
		c1.269-0.734,2.289-1.719,3.53-2.48c0.07-0.09,0.173-0.146,0.287-0.192c0.573,0.477,1.066,1.033,1.812,1.337
		c0.641,0.41,1.271,0.829,2.005,1.145c0.345,0.482,0.855,0.798,1.337,1.146c0.404,0.391,0.824,0.765,1.336,1.05
		c-0.091,1.387-0.206,2.823-0.287,4.294c-0.236,4.274,0.03,9.145-0.191,13.552c-1.271-0.541-2.194-1.432-3.34-2.1
		c-1.244-0.537-1.982-1.58-3.34-2.003c-0.805,0.148-1.189,0.72-1.813,1.049c-0.467,0.456-1.104,0.741-1.525,1.241
		c-1.157,0.721-2.115,1.639-3.15,2.481c-0.368-0.076-0.424-0.466-0.667-0.667c-0.174-0.272-0.544-0.349-0.669-0.668
		c-0.759-0.324-1.259-0.905-2.1-1.146c-0.724-0.357-1.411-0.751-2.195-1.05c-0.22-0.288-0.598-0.421-0.763-0.764
		c-0.298-0.179-0.526-0.429-0.955-0.477c-0.629-0.058-1.012,0.133-1.336,0.381c-0.164,0.376-0.693,0.388-0.857,0.764
		c-0.344,0.196-0.516,0.566-0.86,0.763c-0.259,0.282-0.441,0.64-0.858,0.764c-0.474,0.608-1.115,1.047-1.527,1.717
		c-0.309,0.231-0.5,0.583-0.764,0.859c-0.064,0.222-0.315,0.256-0.38,0.477c-0.112,0.028-0.276,0.542-0.287,0.097
		c0.275-0.375-0.116-0.9-0.096-1.337C2.167,20.899,1.991,15.094,1.697,9.409C1.675,9.102,2.036,9.176,2.173,9.027z"></path>
      <path fill-rule="evenodd" clip-rule="evenodd" d="M13.242,16.375c0.021-0.075,0.08-0.111,0.192-0.095
		c0.337-0.364,0.028-0.987-0.287-1.241c-0.021-0.232-0.261-0.43-0.382-0.572C12.614,14.29,12.488,14,12.193,13.99
		c-0.326-0.042-0.287,0.285-0.478,0.381c0.058,0.515,0.409,0.736,0.573,1.145C12.597,15.812,12.688,16.325,13.242,16.375z"></path>
      <path fill-rule="evenodd" clip-rule="evenodd" d="M17.728,18.666c0.344-0.452,1.082-0.508,1.049-1.336
		c-0.074-0.022-0.109-0.08-0.095-0.191c-0.18-0.076-0.349-0.16-0.573-0.19c-0.015,0.11-0.149,0.103-0.285,0.095
		c-0.342,0.317-0.812,0.631-1.146,0.859c-0.033,0.023-0.069,0.158-0.096,0.191c-0.025,0.031-0.165-0.032-0.192,0
		c-0.035,0.046-0.078,0.249-0.094,0.286c-0.049,0.122-0.122,0.188-0.095,0.381C16.506,19.429,17.39,19.022,17.728,18.666z"></path>
      <path fill-rule="evenodd" clip-rule="evenodd" d="M20.973,12.749c0.253,0.071,0.656-0.053,0.953,0
		c0.595-0.168,1.16-0.367,1.814-0.477c0.453,0.373,0.644,1.008,0.953,1.526c0.355,0.472,0.434,1.221,1.432,1.049
		c0.112-0.175,0.25-0.323,0.382-0.477c-0.161-1.047-0.808-1.61-1.145-2.481c0.524-0.048,0.851-0.294,1.336-0.382
		c0.447-0.124,0.857-0.287,0.858-0.858c-0.318-1.31-1.949-0.252-2.863-0.191c-0.533-0.548-0.661-1.501-1.335-1.909
		c-0.577-0.004-0.66,0.486-0.764,0.954c0.059,0.64,0.406,0.992,0.571,1.528c-0.532,0.229-1.138,0.388-1.908,0.381
		c-0.246,0.327-0.794,0.351-0.764,0.954C20.639,12.543,20.706,12.675,20.973,12.749z"></path>
      <path fill-rule="evenodd" clip-rule="evenodd" d="M19.636,16.757c0.457,0.196,0.833-0.24,1.146-0.477
		c0.343-0.294,0.729-0.543,0.763-1.145c-0.57-0.713-1.379,0.171-1.812,0.477c-0.06,0.355-0.392,0.437-0.287,0.955
		C19.552,16.585,19.594,16.671,19.636,16.757z"></path>
      <path fill-rule="evenodd" clip-rule="evenodd" d="M15.341,18.855c0.119-0.564-0.209-0.681-0.382-0.954
		c-0.328-0.116-0.318-0.572-0.857-0.477h-0.191c-0.109,0.113-0.108,0.338-0.096,0.572C14.113,18.475,14.661,19.352,15.341,18.855z"></path>
      <path fill-rule="evenodd" clip-rule="evenodd" d="M22.976,12.653c-0.389,0.451-1.434,0.712-1.05,1.622
		c0.456,0.238,0.705-0.227,1.05-0.381c0.275-0.266,0.695-0.387,0.573-1.05C23.349,12.789,23.277,12.608,22.976,12.653z"></path>
    </g>
  </g>
</svg>
